<svg xmlns="http://www.w3.org/2000/svg" width="1024" height="1024" viewBox="0 0 1024 1024">
<g>
<path d="M 837.00 665.44 C837.00,678.33 836.61,689.12 836.13,689.42 C834.80,690.24 833.61,666.99 834.92,665.68 C835.52,665.08 835.96,661.23 835.92,657.05 C835.88,652.90 835.61,650.08 835.33,650.78 C834.99,651.61 833.35,650.53 830.63,647.69 L 826.45 643.33 L 787.52 643.12 C766.10,643.01 748.38,642.71 748.12,642.46 C747.87,642.21 767.77,642.00 792.33,642.00 L 837.00 642.00 Z" fill="rgb(250,179,186)"/>
<path d="M 552.17 825.03 C551.85,825.95 372.61,826.22 365.50,825.32 C348.70,823.18 339.83,821.43 330.50,818.41 C289.51,805.17 258.36,778.04 238.75,738.50 C234.72,730.38 233.26,726.07 232.64,720.50 C232.39,718.30 231.63,715.12 230.95,713.44 C229.23,709.22 230.44,703.00 232.97,703.00 C234.06,703.00 235.48,704.25 236.33,705.96 C237.59,708.49 237.60,709.08 236.40,710.08 C234.61,711.57 234.60,713.00 236.38,713.00 C237.14,713.00 238.43,714.01 239.26,715.25 C240.63,717.30 240.93,717.37 242.63,715.98 C244.28,714.63 251.19,714.16 259.03,714.86 C259.90,714.94 261.80,717.89 263.46,721.75 C265.05,725.46 269.58,733.45 273.51,739.50 C291.32,766.88 318.28,785.11 351.50,792.26 C361.23,794.36 364.16,794.43 462.00,795.06 C557.62,795.67 571.02,796.09 577.00,798.66 C577.83,799.01 580.75,799.65 583.50,800.08 C586.25,800.50 591.36,801.86 594.86,803.10 C600.00,804.92 601.42,805.90 602.21,808.18 C603.28,811.23 605.70,811.94 606.65,809.47 C607.10,808.30 607.55,808.21 608.62,809.10 C609.38,809.73 610.00,810.83 610.00,811.55 C610.00,812.27 611.45,813.99 613.22,815.37 C616.95,818.30 616.34,818.78 608.18,819.36 C605.26,819.57 602.35,820.25 601.73,820.87 C601.11,821.49 597.74,822.00 594.24,822.00 C590.74,822.00 588.13,822.40 588.44,822.90 C588.75,823.41 581.20,823.85 570.74,823.93 C560.00,824.01 552.36,824.46 552.17,825.03 ZM 399.26 746.81 C397.74,747.39 389.30,748.02 380.50,748.21 C360.55,748.65 352.59,747.09 348.02,741.86 C346.34,739.94 345.47,738.13 345.97,737.63 C346.47,737.13 346.06,735.91 345.00,734.77 C343.43,733.08 342.40,732.89 338.04,733.50 C333.62,734.10 332.44,733.88 329.47,731.85 C325.80,729.34 324.44,727.16 325.73,725.87 C327.00,724.60 332.30,724.53 334.55,725.75 C335.77,726.41 337.18,726.51 338.01,726.00 C338.96,725.41 340.19,725.91 341.84,727.57 C343.59,729.32 344.63,729.72 345.51,728.99 C346.42,728.24 347.07,728.75 347.97,730.92 C348.81,732.97 349.67,733.68 350.76,733.26 C351.87,732.84 352.09,733.04 351.53,733.96 C351.08,734.67 353.37,733.78 356.61,731.98 C359.85,730.18 363.51,728.17 364.73,727.50 C365.96,726.84 366.72,726.05 366.42,725.75 C365.52,724.86 373.73,723.78 375.98,724.49 C377.12,724.86 377.95,725.68 377.81,726.33 C377.32,728.75 381.23,736.83 383.14,737.33 C384.61,737.71 384.95,737.42 384.56,736.17 C383.88,734.00 391.23,726.00 393.90,726.00 C396.55,726.00 397.68,728.03 395.80,729.41 C394.63,730.26 394.54,730.92 395.39,732.31 C396.27,733.74 396.12,734.40 394.68,735.47 C392.94,736.76 392.95,736.85 394.93,737.48 C396.07,737.84 397.00,738.80 397.00,739.62 C397.00,740.43 398.13,742.14 399.51,743.42 L 402.02 745.75 Z" fill="rgb(248,32,121)"/>
<path d="M 399.26 746.81 L 402.02 745.75 L 399.51 743.42 C398.13,742.14 397.00,740.43 397.00,739.62 C397.00,738.80 396.07,737.84 394.93,737.48 C392.95,736.85 392.94,736.76 394.68,735.47 C396.12,734.40 396.27,733.74 395.39,732.31 C394.54,730.92 394.63,730.26 395.80,729.41 C397.68,728.03 396.55,726.00 393.90,726.00 C391.23,726.00 383.88,734.00 384.56,736.17 C384.95,737.42 384.61,737.71 383.14,737.33 C381.23,736.83 377.32,728.75 377.81,726.33 C377.95,725.68 377.12,724.86 375.98,724.49 C373.73,723.78 365.52,724.86 366.42,725.75 C366.72,726.05 365.96,726.84 364.73,727.50 C363.51,728.17 359.85,730.18 356.61,731.98 C353.37,733.78 351.08,734.67 351.53,733.96 C352.09,733.04 351.87,732.84 350.76,733.26 C349.67,733.68 348.81,732.97 347.97,730.92 C347.07,728.75 346.42,728.24 345.51,728.99 C344.63,729.72 343.59,729.32 341.84,727.57 C340.19,725.91 338.96,725.41 338.01,726.00 C337.18,726.51 335.77,726.41 334.55,725.75 C332.30,724.53 327.00,724.60 325.73,725.87 C324.44,727.16 325.80,729.34 329.47,731.85 C332.44,733.88 333.62,734.10 338.04,733.50 C342.40,732.89 343.43,733.08 345.00,734.77 C346.06,735.91 346.47,737.13 345.97,737.63 C345.47,738.13 346.34,739.94 348.02,741.86 C349.24,743.25 350.69,744.38 352.54,745.28 C341.39,741.91 334.81,738.18 326.68,731.46 C318.32,724.57 313.55,718.55 308.01,707.90 C301.15,694.72 299.76,688.36 299.25,667.75 L 298.81 650.00 L 301.45 650.00 C304.04,650.00 305.03,650.56 309.27,654.45 C310.76,655.81 313.06,656.47 316.84,656.61 C322.48,656.83 324.36,658.11 323.61,661.25 C323.38,662.21 323.54,663.00 323.97,663.00 C324.40,663.00 325.32,664.35 326.00,666.00 C326.68,667.65 327.57,669.00 327.97,669.00 C328.38,669.00 328.99,672.35 329.34,676.45 C330.23,687.00 334.02,695.82 340.80,703.15 C346.85,709.68 351.62,712.84 360.58,716.23 L 366.50 718.48 L 510.75 718.99 C590.09,719.27 655.00,719.84 655.00,720.25 C655.00,720.66 655.00,721.67 655.00,722.50 C655.00,723.33 655.62,724.00 656.37,724.00 C657.86,724.00 665.91,727.24 670.11,729.53 C671.54,730.31 672.97,730.70 673.28,730.39 C673.58,730.08 674.79,732.00 675.97,734.65 C679.66,743.01 680.91,743.79 690.14,743.56 C694.55,743.44 698.46,742.88 698.83,742.31 C699.88,740.67 703.35,739.95 705.00,741.02 C706.33,741.89 706.33,742.11 705.00,742.98 C704.17,743.53 702.24,743.98 700.70,743.98 C698.98,743.99 696.97,745.01 695.48,746.62 L 693.05 749.24 L 688.27 746.99 C683.66,744.80 683.35,744.78 678.87,746.37 C676.32,747.26 673.28,748.00 672.12,748.00 C670.95,748.00 670.00,748.45 670.00,749.00 C670.00,749.99 372.92,750.30 368.50,749.32 C365.80,748.72 363.30,748.14 360.98,747.57 C365.78,748.23 372.07,748.40 380.50,748.21 C389.30,748.02 397.74,747.39 399.26,746.81 ZM 552.17 825.03 C552.36,824.46 560.00,824.01 570.74,823.93 C581.20,823.85 588.75,823.41 588.44,822.90 C588.13,822.40 590.74,822.00 594.24,822.00 C597.74,822.00 601.11,821.49 601.73,820.87 C602.35,820.25 605.26,819.57 608.18,819.36 C616.34,818.78 616.95,818.30 613.22,815.37 C611.45,813.99 610.00,812.27 610.00,811.55 C610.00,810.83 609.38,809.73 608.62,809.10 C607.55,808.21 607.10,808.30 606.65,809.47 C605.70,811.94 603.28,811.23 602.21,808.18 C601.42,805.90 600.00,804.92 594.86,803.10 C591.36,801.86 586.25,800.50 583.50,800.08 C580.75,799.65 577.83,799.01 577.00,798.66 C571.02,796.09 557.62,795.67 462.00,795.06 C382.88,794.55 365.83,794.41 357.05,793.26 C366.89,794.42 392.21,794.48 531.00,794.39 C662.26,794.30 700.82,794.00 705.49,793.02 C712.43,791.56 724.34,791.58 727.10,793.05 C728.14,793.61 729.85,795.74 730.91,797.78 C731.96,799.83 734.21,802.82 735.91,804.44 C737.61,806.05 739.00,807.96 739.00,808.69 C739.00,809.41 739.47,810.00 740.04,810.00 C741.15,810.00 740.25,811.94 737.56,815.38 C735.17,818.43 712.13,823.56 694.85,824.88 C684.80,825.65 631.33,825.95 524.35,825.85 C510.87,825.84 497.74,825.82 485.18,825.80 C521.51,825.68 552.04,825.41 552.17,825.03 ZM 262.20 719.08 C260.92,716.61 259.69,714.92 259.03,714.86 C251.19,714.16 244.28,714.63 242.63,715.98 C240.93,717.37 240.63,717.30 239.26,715.25 C238.43,714.01 237.14,713.00 236.38,713.00 C234.60,713.00 234.61,711.57 236.40,710.08 C237.60,709.08 237.59,708.49 236.33,705.96 C235.48,704.25 234.06,703.00 232.97,703.00 C230.44,703.00 229.23,709.22 230.95,713.44 C231.63,715.12 232.39,718.30 232.64,720.50 C232.91,722.90 233.33,725.07 234.05,727.41 C232.09,722.35 230.36,717.15 228.88,711.83 C224.32,695.37 223.58,687.78 223.58,657.50 C223.58,641.55 223.91,626.88 224.31,624.89 C224.95,621.72 225.34,621.34 227.52,621.76 C228.88,622.02 230.00,622.63 230.00,623.12 C230.00,623.60 230.44,624.00 230.97,624.00 C232.75,624.00 241.00,630.37 241.00,631.74 C241.00,632.70 241.48,632.83 242.61,632.20 C244.83,630.96 248.47,632.83 250.48,636.24 C251.38,637.76 252.43,639.00 252.81,639.00 C253.19,639.00 253.56,648.57 253.63,660.25 C253.77,682.88 255.29,696.51 258.95,707.88 C260.08,711.39 261.00,714.71 261.00,715.26 C261.00,715.94 261.44,717.29 262.20,719.08 ZM 741.77 787.19 C741.27,788.68 739.00,789.50 739.00,788.19 C739.00,787.65 739.71,786.94 740.58,786.61 C741.56,786.23 742.01,786.46 741.77,787.19 ZM 241.64 744.09 C250.81,761.07 262.23,775.60 275.74,787.56 C261.92,775.38 250.39,760.69 241.64,744.09 ZM 334.21 787.34 C308.88,778.26 288.12,761.96 273.51,739.50 C269.95,734.02 265.90,726.94 263.98,722.90 C266.35,727.68 269.88,733.87 273.53,739.50 C288.03,761.84 308.93,778.23 334.21,787.34 ZM 305.34 807.91 C313.25,812.05 321.65,815.55 330.50,818.41 C330.75,818.49 330.99,818.57 331.24,818.65 C323.85,816.42 317.02,813.66 309.50,810.01 C308.10,809.33 306.71,808.63 305.34,807.91 Z" fill="rgb(249,57,108)"/>
<path d="M 694.13 749.00 C693.98,749.02 693.67,749.04 693.21,749.06 L 695.48 746.62 C696.97,745.01 698.98,743.99 700.70,743.98 C702.24,743.98 704.17,743.53 705.00,742.98 C706.33,742.11 706.33,741.89 705.00,741.02 C703.35,739.95 699.88,740.67 698.83,742.31 C698.46,742.88 694.55,743.44 690.14,743.56 C680.91,743.79 679.66,743.01 675.97,734.65 C674.79,732.00 673.58,730.08 673.28,730.39 C672.97,730.70 671.54,730.31 670.11,729.53 C665.91,727.24 657.86,724.00 656.37,724.00 C655.62,724.00 655.00,723.33 655.00,722.50 C655.00,721.67 655.00,720.66 655.00,720.25 C655.00,719.84 590.09,719.27 510.75,718.99 L 372.55 718.50 L 692.50 718.50 L 699.19 716.19 C715.91,710.41 728.13,697.82 733.03,681.33 C733.20,680.74 733.40,680.21 733.57,679.71 C734.01,678.50 734.35,677.54 734.09,676.78 C733.14,673.96 723.82,673.97 679.68,673.99 C674.89,674.00 669.68,674.00 664.03,674.00 C618.68,674.00 595.00,673.66 595.00,673.00 C595.00,672.38 600.91,672.00 610.75,672.01 C626.25,672.01 642.00,670.42 642.00,668.85 C642.00,668.41 640.71,667.38 639.13,666.57 C636.00,664.95 634.34,661.03 636.28,659.83 C637.07,659.34 637.14,658.77 636.49,658.18 C627.28,649.81 627.66,650.00 615.83,647.96 C609.60,646.89 602.14,646.01 599.25,646.01 C596.36,646.00 594.00,645.56 594.00,645.03 C594.00,644.49 589.11,643.93 582.75,643.75 C582.19,643.73 581.92,643.71 581.92,643.70 C581.92,643.53 609.62,643.32 647.84,643.21 L 650.54 643.21 C714.93,643.03 725.34,643.00 735.08,645.51 C737.09,646.03 739.07,646.66 741.50,647.42 C744.76,648.44 745.56,649.19 745.83,651.47 C746.01,653.00 747.24,655.42 748.55,656.84 L 750.95 659.42 L 748.22 660.63 C746.73,661.29 746.03,661.87 746.68,661.92 C747.33,661.96 750.03,664.31 752.68,667.14 C755.33,669.96 758.06,672.85 758.75,673.56 C760.66,675.54 760.22,686.54 757.88,695.00 C756.74,699.12 755.67,703.56 755.48,704.85 C754.95,708.62 748.40,717.67 740.15,725.99 C727.83,738.43 711.80,746.45 694.13,749.00 ZM 727.14 819.49 C732.67,818.03 736.64,816.55 737.56,815.38 C740.25,811.94 741.15,810.00 740.04,810.00 C739.47,810.00 739.00,809.41 739.00,808.69 C739.00,807.96 737.61,806.05 735.91,804.44 C734.21,802.82 731.96,799.83 730.91,797.78 C729.85,795.74 728.14,793.61 727.10,793.05 C724.68,791.76 715.19,791.58 708.21,792.55 C728.40,788.60 744.49,781.57 759.83,770.01 C767.89,763.93 779.73,752.08 783.90,745.89 C785.23,743.94 788.48,740.80 791.13,738.92 C794.79,736.32 796.22,734.54 797.06,731.50 C798.70,725.56 801.14,721.00 802.66,721.00 C803.40,721.00 804.06,721.90 804.12,723.00 C804.19,724.10 804.31,725.47 804.38,726.05 C804.58,727.78 809.09,732.00 810.74,732.00 C813.30,732.00 819.00,738.84 819.00,741.92 C819.00,744.62 816.39,748.00 814.31,748.00 C813.74,748.00 812.17,748.86 810.83,749.92 C808.66,751.63 808.46,752.37 808.98,756.67 C809.53,761.23 809.31,761.84 805.08,767.50 C798.60,776.18 782.70,791.60 773.43,798.20 C764.39,804.63 751.20,811.87 743.00,814.90 C738.83,816.44 733.25,818.03 727.14,819.49 ZM 692.71 749.08 C683.50,749.42 633.64,749.67 575.68,749.79 C628.17,749.65 670.00,749.37 670.00,749.00 C670.00,748.45 670.95,748.00 672.12,748.00 C673.28,748.00 676.32,747.26 678.87,746.37 C683.35,744.78 683.66,744.80 688.27,746.99 ZM 741.77 787.19 C742.01,786.46 741.56,786.23 740.58,786.61 C739.71,786.94 739.00,787.65 739.00,788.19 C739.00,789.50 741.27,788.68 741.77,787.19 ZM 531.42 825.86 C504.43,825.89 477.39,825.89 453.20,825.87 C463.95,825.86 474.80,825.84 485.18,825.80 C497.74,825.82 510.87,825.84 524.35,825.85 C526.73,825.85 529.09,825.85 531.42,825.86 ZM 623.53 794.25 C599.57,794.32 569.22,794.36 531.00,794.39 C426.16,794.46 386.06,794.44 368.48,793.93 C386.06,794.44 426.14,794.45 531.00,794.37 C569.98,794.34 600.12,794.30 623.53,794.25 ZM 705.96 792.92 C705.80,792.95 705.65,792.98 705.49,793.02 C704.16,793.30 700.05,793.52 691.80,793.70 C699.39,793.51 703.37,793.26 705.96,792.92 ZM 694.44 824.95 C693.89,824.99 692.82,825.03 691.26,825.07 C692.79,825.01 693.98,824.95 694.85,824.88 C696.91,824.72 699.05,824.51 701.22,824.26 C698.82,824.56 696.54,824.79 694.44,824.95 Z" fill="rgb(250,101,116)"/>
<path d="M 783.83 789.67 C791.91,782.42 800.67,773.40 805.08,767.50 C809.31,761.84 809.53,761.23 808.98,756.67 C808.46,752.37 808.66,751.63 810.83,749.92 C812.17,748.86 813.74,748.00 814.31,748.00 C816.39,748.00 819.00,744.62 819.00,741.92 C819.00,738.84 813.30,732.00 810.74,732.00 C809.09,732.00 804.58,727.78 804.38,726.05 C804.31,725.47 804.19,724.10 804.12,723.00 C804.06,721.90 803.40,721.00 802.66,721.00 C801.14,721.00 798.70,725.56 797.06,731.50 C796.22,734.54 794.79,736.32 791.13,738.92 C788.48,740.80 785.23,743.94 783.90,745.89 C781.92,748.83 778.22,753.04 774.01,757.30 C790.03,740.38 801.42,718.75 805.46,695.56 C807.27,685.18 807.46,675.40 805.88,674.42 C805.01,673.89 775.99,673.52 766.87,673.93 C765.64,673.98 765.05,675.43 764.52,679.75 C763.33,689.26 759.86,698.81 754.38,707.90 C754.99,706.68 755.37,705.65 755.48,704.85 C755.67,703.56 756.74,699.12 757.88,695.00 C760.22,686.54 760.66,675.54 758.75,673.56 C758.06,672.85 755.33,669.96 752.68,667.14 C750.03,664.31 747.33,661.96 746.68,661.92 C746.03,661.87 746.73,661.29 748.22,660.63 L 750.95 659.42 L 748.55 656.84 C747.24,655.42 746.01,653.00 745.83,651.47 C745.56,649.19 744.76,648.44 741.50,647.42 C739.07,646.66 737.09,646.03 735.08,645.51 C725.34,643.00 714.93,643.03 650.54,643.21 L 650.54 643.21 L 647.84 643.21 C609.62,643.32 581.92,643.53 581.92,643.70 C581.92,643.71 582.19,643.73 582.75,643.75 C585.98,643.84 588.83,644.03 590.86,644.26 C588.92,644.09 586.16,644.00 582.83,644.00 C576.69,644.00 571.85,643.82 572.08,643.61 C572.31,643.39 632.01,642.90 704.75,642.51 L 753.02 642.25 C749.83,642.31 748.05,642.38 748.12,642.46 C748.38,642.71 766.10,643.01 787.52,643.12 L 826.45 643.33 L 830.63 647.69 C833.35,650.53 834.99,651.61 835.33,650.78 C835.61,650.08 835.88,652.90 835.92,657.05 C835.96,661.23 835.52,665.08 834.92,665.68 C833.61,666.99 834.80,690.24 836.13,689.42 C836.19,689.38 836.25,689.20 836.30,688.87 C836.19,690.35 836.08,691.43 835.96,692.00 C835.43,694.47 834.33,700.68 833.52,705.78 C831.90,715.91 827.55,729.53 822.41,740.50 C814.22,758.00 800.11,775.56 783.83,789.67 ZM 692.71 749.08 L 692.79 749.12 C687.45,749.63 644.67,749.87 572.33,749.80 L 575.68 749.79 L 575.69 749.79 C633.65,749.67 683.50,749.42 692.71,749.08 ZM 369.17 749.38 L 365.50 749.38 L 356.46 746.85 C351.69,745.52 347.14,743.82 342.80,741.74 C345.70,743.02 348.87,744.17 352.54,745.28 C354.71,746.34 357.44,747.09 360.98,747.57 C363.30,748.14 365.80,748.72 368.50,749.32 C368.59,749.34 368.82,749.36 369.17,749.38 ZM 674.77 793.96 C693.80,793.67 703.41,793.16 709.89,792.21 C709.33,792.33 708.78,792.44 708.21,792.55 C707.43,792.66 706.67,792.78 705.96,792.92 C703.37,793.26 699.40,793.51 691.81,793.70 L 691.80 793.70 C687.38,793.80 681.77,793.88 674.77,793.96 ZM 837.00 642.00 L 798.79 642.00 L 837.00 641.79 ZM 766.85 802.57 C758.97,807.76 750.90,811.98 743.00,814.90 C749.37,812.55 758.75,807.65 766.85,802.57 ZM 727.63 736.29 C721.52,740.39 714.93,743.56 707.87,745.81 C714.90,743.53 721.54,740.33 727.63,736.29 ZM 693.25 749.06 L 693.21 749.06 Z" fill="rgb(250,143,149)"/>
<path d="M 720.78 642.42 L 704.75 642.51 C632.01,642.90 572.31,643.39 572.08,643.61 C571.85,643.82 576.69,644.00 582.83,644.00 C586.16,644.00 588.92,644.09 590.86,644.26 C592.82,644.49 594.00,644.76 594.00,645.03 C594.00,645.56 596.36,646.00 599.25,646.01 C602.14,646.01 609.60,646.89 615.83,647.96 C627.66,650.00 627.28,649.81 636.49,658.18 C637.14,658.77 637.07,659.34 636.28,659.83 C634.34,661.03 636.00,664.95 639.13,666.57 C640.71,667.38 642.00,668.41 642.00,668.85 C642.00,670.42 626.25,672.01 610.75,672.01 C600.91,672.00 595.00,672.38 595.00,673.00 C595.00,673.66 618.68,674.00 664.03,674.00 C669.68,674.00 674.89,674.00 679.68,673.99 C708.86,673.97 722.82,673.97 729.21,674.78 C718.03,674.09 680.48,674.00 560.18,674.00 C465.09,674.00 384.52,673.71 381.13,673.36 L 374.97 672.71 L 375.02 617.82 C375.04,587.62 375.45,563.16 375.92,563.45 C376.39,563.74 376.99,563.15 377.25,562.14 C377.62,560.73 378.44,560.41 380.79,560.76 C382.47,561.00 385.47,560.67 387.45,560.02 C390.59,558.98 391.49,559.09 394.52,560.88 C396.44,562.01 398.00,562.50 398.00,561.97 C398.00,561.43 398.34,561.05 398.75,561.12 C400.67,561.42 402.07,560.91 401.56,560.09 C401.25,559.59 401.90,559.42 403.01,559.71 C404.99,560.23 405.02,560.92 404.83,600.73 C404.64,639.42 404.72,641.26 406.51,642.27 C407.82,643.00 473.58,643.13 622.70,642.70 ZM 253.84 671.39 C253.72,667.93 253.66,664.23 253.63,660.25 C253.56,648.57 253.19,639.00 252.81,639.00 C252.43,639.00 251.38,637.76 250.48,636.24 C248.47,632.83 244.83,630.96 242.61,632.20 C241.48,632.83 241.00,632.70 241.00,631.74 C241.00,630.37 232.75,624.00 230.97,624.00 C230.44,624.00 230.00,623.60 230.00,623.12 C230.00,622.63 228.88,622.02 227.52,621.76 C225.48,621.37 225.01,621.68 224.43,624.29 C224.56,622.46 224.70,620.84 224.86,619.50 C228.30,589.73 236.17,558.34 246.25,534.25 C249.21,527.16 249.93,526.51 254.25,526.95 C255.21,527.05 256.00,526.62 256.00,525.99 C256.00,525.33 256.66,525.51 257.57,526.43 C258.44,527.29 259.67,527.96 260.32,527.92 C261.22,527.86 261.22,527.73 260.31,527.36 C259.46,527.01 259.59,526.34 260.74,524.99 C261.63,523.95 262.80,523.37 263.33,523.71 C263.87,524.04 263.99,523.80 263.61,523.18 C262.40,521.22 264.89,518.00 267.60,518.00 C270.94,518.00 274.04,519.72 273.47,521.27 C273.22,521.94 273.45,523.17 273.97,523.99 C274.72,525.18 275.17,525.23 276.16,524.24 C277.64,522.76 279.38,522.58 278.51,523.99 C278.17,524.54 278.53,524.73 279.32,524.43 C282.42,523.24 281.65,527.39 276.58,539.17 C271.40,551.21 268.76,558.72 263.66,576.00 C256.40,600.57 253.61,623.45 253.66,658.00 C253.66,662.91 253.72,667.34 253.84,671.39 ZM 329.21 616.25 L 329.48 677.88 C329.42,677.40 329.38,676.93 329.34,676.45 C328.99,672.35 328.38,669.00 327.97,669.00 C327.57,669.00 326.68,667.65 326.00,666.00 C325.32,664.35 324.40,663.00 323.97,663.00 C323.54,663.00 323.38,662.21 323.61,661.25 C324.36,658.11 322.48,656.83 316.84,656.61 C313.06,656.47 310.76,655.81 309.27,654.45 C305.03,650.56 304.04,650.00 301.45,650.00 L 299.10 650.00 C298.94,630.47 299.66,624.14 303.07,606.00 C306.60,587.20 312.51,568.20 320.01,551.50 C322.78,545.34 322.89,545.21 324.02,547.03 C324.52,547.84 325.39,548.56 325.96,548.62 C326.53,548.69 327.43,548.81 327.96,548.88 C328.56,548.95 329.03,574.25 329.21,616.25 ZM 733.82 676.30 C733.95,676.45 734.04,676.61 734.09,676.78 C734.35,677.54 734.01,678.50 733.57,679.71 C733.40,680.21 733.20,680.74 733.03,681.33 C732.07,684.56 730.83,687.64 729.33,690.55 C732.29,684.40 734.04,678.79 733.82,676.30 ZM 308.01 707.90 C303.68,699.59 301.59,694.70 300.49,686.43 C301.64,694.27 303.79,699.80 308.01,707.90 ZM 275.03 786.93 C262.59,775.86 252.08,762.78 243.80,748.04 C252.09,762.75 262.62,775.85 275.03,786.93 ZM 718.60 704.68 C713.19,709.69 706.63,713.62 699.19,716.19 C706.42,713.69 713.13,709.65 718.60,704.68 ZM 341.51 703.91 C341.28,703.66 341.04,703.41 340.80,703.15 C338.66,700.84 336.83,698.39 335.28,695.78 C337.04,698.57 339.20,701.38 341.51,703.91 ZM 224.88 693.42 C224.59,691.68 224.35,688.88 224.16,685.35 C224.39,688.87 224.71,691.96 225.13,694.92 C225.05,694.42 224.96,693.92 224.88,693.42 ZM 359.26 715.72 C356.95,714.81 354.93,713.90 353.08,712.93 C354.98,713.87 357.25,714.91 359.26,715.72 ZM 223.59 661.45 C223.58,659.24 223.57,656.99 223.58,654.75 C223.58,655.66 223.58,656.58 223.58,657.50 C223.58,658.86 223.58,660.18 223.59,661.45 Z" fill="rgb(251,78,83)"/>
<path d="M 406.16 553.14 C405.45,556.06 404.98,571.88 404.84,597.71 C405.01,560.89 404.93,560.22 403.01,559.71 C401.90,559.42 401.25,559.59 401.56,560.09 C402.07,560.91 400.67,561.42 398.75,561.12 C398.34,561.05 398.00,561.43 398.00,561.97 C398.00,562.50 396.44,562.01 394.52,560.88 C391.49,559.09 390.59,558.98 387.45,560.02 C385.47,560.67 382.47,561.00 380.79,560.76 C378.44,560.41 377.62,560.73 377.25,562.14 C376.99,563.15 376.39,563.74 375.92,563.45 C375.68,563.30 375.46,569.37 375.30,579.26 L 375.57 513.50 L 378.36 504.10 C384.31,484.09 394.56,466.54 408.17,453.07 C412.63,448.66 416.61,445.26 417.01,445.50 C417.41,445.75 418.98,444.89 420.50,443.59 C422.02,442.28 425.53,440.76 428.31,440.22 C434.23,439.04 438.62,440.25 445.63,444.99 C448.09,446.64 451.43,448.69 453.05,449.53 C455.96,451.03 456.91,454.10 455.23,456.59 C454.83,457.19 450.67,459.65 446.00,462.06 C439.75,465.28 435.51,468.44 429.99,473.97 C422.67,481.31 413.11,495.19 414.94,495.81 C415.45,495.98 417.61,494.96 419.74,493.55 C424.45,490.43 438.03,485.60 447.89,483.52 C457.92,481.41 592.00,481.21 592.00,483.31 C592.00,484.20 593.53,484.63 596.75,484.67 C599.36,484.70 603.16,484.89 605.20,485.11 C608.47,485.45 608.86,485.79 608.60,488.00 C608.45,489.38 607.70,492.19 606.95,494.26 C605.76,497.56 605.79,498.21 607.19,499.62 C608.07,500.50 610.86,501.46 613.38,501.74 C619.29,502.41 620.86,504.14 618.07,506.93 C616.93,508.07 616.00,509.61 616.00,510.36 C616.00,512.65 605.71,512.99 534.13,512.99 C477.13,513.00 463.99,513.26 455.13,514.57 C428.43,518.53 411.29,532.02 406.16,553.14 ZM 312.05 479.46 C293.43,503.07 278.80,530.26 268.47,560.39 C271.00,552.69 273.27,546.85 276.58,539.17 C281.65,527.39 282.42,523.24 279.32,524.43 C278.53,524.73 278.17,524.54 278.51,523.99 C279.38,522.58 277.64,522.76 276.16,524.24 C275.17,525.23 274.72,525.18 273.97,523.99 C273.45,523.17 273.22,521.94 273.47,521.27 C274.04,519.72 270.94,518.00 267.60,518.00 C264.89,518.00 262.40,521.22 263.61,523.18 C263.99,523.80 263.87,524.04 263.33,523.71 C262.80,523.37 261.63,523.95 260.74,524.99 C259.59,526.34 259.46,527.01 260.31,527.36 C261.22,527.73 261.22,527.86 260.32,527.92 C259.67,527.96 258.44,527.29 257.57,526.43 C256.66,525.51 256.00,525.33 256.00,525.99 C256.00,526.62 255.21,527.05 254.25,526.95 C249.93,526.51 249.21,527.16 246.25,534.25 C246.15,534.48 246.05,534.72 245.95,534.95 C246.29,534.13 246.62,533.31 246.96,532.49 C259.18,503.07 275.10,476.49 294.21,453.63 C304.24,441.62 326.63,420.00 329.03,420.00 C329.98,420.00 331.32,419.33 332.00,418.50 C332.68,417.67 333.84,417.00 334.58,417.00 C335.31,417.00 337.03,415.88 338.41,414.50 C339.78,413.12 341.60,412.00 342.45,412.00 C343.30,412.00 344.00,411.62 344.00,411.17 C344.00,410.71 344.56,410.31 345.25,410.28 C345.94,410.25 348.19,409.50 350.25,408.60 C353.81,407.05 354.00,407.06 354.00,408.81 C354.00,411.36 358.13,414.99 361.06,415.04 C362.40,415.05 364.62,415.71 366.00,416.50 C367.38,417.29 369.93,417.95 371.68,417.96 L 374.85 418.00 L 373.19 421.90 C371.98,424.73 369.75,426.98 365.04,430.15 C347.92,441.63 325.23,462.75 312.05,479.46 ZM 233.02 494.50 C229.60,501.10 226.39,506.93 225.90,507.45 C225.37,508.01 225.08,471.25 225.20,417.45 C225.31,370.11 225.53,334.13 225.72,334.13 C225.73,334.13 225.74,334.25 225.75,334.48 C225.98,339.95 226.39,342.00 227.03,340.98 C227.74,339.86 227.97,340.19 227.98,342.37 C228.00,344.69 228.27,345.02 229.37,344.11 C230.12,343.49 231.58,343.08 232.62,343.20 C236.28,343.63 247.00,340.78 247.00,339.37 C247.00,338.62 247.68,338.00 248.50,338.00 C249.32,338.00 250.00,337.52 250.00,336.94 C250.00,336.36 250.45,336.16 251.00,336.50 C251.55,336.84 252.00,336.43 252.00,335.59 C252.00,334.64 252.57,334.28 253.50,334.64 C254.81,335.14 255.00,343.00 255.00,396.94 L 255.00 458.67 L 247.12 470.59 C242.79,477.14 236.45,487.90 233.02,494.50 ZM 306.17 395.52 C304.64,398.88 301.00,398.91 301.00,395.56 C301.00,394.22 301.45,392.84 302.00,392.50 C302.55,392.16 303.00,390.99 303.00,389.91 C303.00,387.56 305.67,386.27 307.26,387.86 C308.09,388.69 308.96,388.45 310.60,386.91 C312.92,384.72 317.05,384.61 317.75,386.72 C318.27,388.31 313.29,393.30 311.98,392.49 C310.26,391.42 307.35,392.94 306.17,395.52 ZM 329.21 616.25 C329.03,574.25 328.56,548.95 327.96,548.88 C327.43,548.81 326.53,548.69 325.96,548.62 C325.39,548.56 324.52,547.84 324.02,547.03 C323.31,545.89 323.01,545.51 322.19,546.91 C325.10,540.91 327.69,536.29 328.12,536.72 C328.56,537.16 329.05,570.37 329.21,610.51 L 329.48 677.90 L 329.48 677.88 ZM 610.42 482.88 C610.66,483.27 609.99,483.65 608.93,483.73 C607.85,483.81 607.00,483.24 607.00,482.44 C607.00,481.52 607.99,481.03 609.75,481.08 C611.26,481.12 611.93,481.39 611.24,481.66 C610.55,481.94 610.18,482.49 610.42,482.88 ZM 255.89 613.52 C254.42,626.51 253.63,641.78 253.66,658.00 C253.63,640.84 254.31,626.56 255.89,613.52 ZM 224.86 619.50 C226.84,602.36 230.11,585.35 234.53,569.09 C230.16,585.34 226.80,602.68 224.86,619.50 ZM 319.14 553.47 C315.97,560.73 313.09,568.39 310.59,576.26 C312.20,571.13 313.94,566.15 315.76,561.50 C316.74,558.99 317.91,556.22 319.14,553.47 ZM 374.92 672.71 L 374.98 657.87 L 374.97 672.71 Z" fill="rgb(251,126,50)"/>
<path d="M 704.00 266.57 C692.87,269.49 690.00,269.88 690.00,268.46 C690.00,267.69 692.01,266.91 695.09,266.49 C697.89,266.10 701.38,265.16 702.84,264.40 C704.30,263.64 706.00,263.01 706.62,263.01 C707.23,263.00 708.85,262.12 710.23,261.04 C711.60,259.95 716.69,257.92 721.53,256.52 C731.59,253.60 733.59,252.42 731.89,250.37 C731.27,249.62 730.14,249.00 729.39,249.00 C727.13,249.00 724.00,245.71 724.00,243.34 C724.00,242.12 723.54,240.84 722.99,240.49 C722.43,240.15 721.08,238.12 720.00,236.00 C718.11,232.29 717.86,232.15 713.76,232.55 C711.42,232.78 708.26,233.23 706.75,233.56 C701.92,234.61 703.80,233.20 709.42,231.57 C715.83,229.70 732.66,221.19 742.50,214.83 C755.66,206.33 771.21,191.29 781.79,176.84 C791.84,163.11 802.59,137.62 803.76,124.76 L 804.28 118.96 L 783.48 119.23 L 762.68 119.50 L 760.49 126.00 C755.71,140.16 748.56,151.37 736.07,164.34 C722.02,178.91 703.86,189.29 685.00,193.52 C675.70,195.60 637.00,196.89 637.00,195.12 C637.00,194.35 641.37,194.00 651.00,194.00 C660.50,194.00 665.00,193.65 665.00,192.90 C665.00,192.15 666.85,192.02 670.81,192.48 C675.47,193.02 676.89,192.84 677.94,191.58 C678.66,190.71 680.30,190.00 681.59,190.00 C682.91,190.00 684.40,189.13 685.01,187.99 C685.91,186.30 685.72,185.84 683.79,185.11 C682.53,184.63 680.60,184.06 679.50,183.84 C678.13,183.57 677.51,182.66 677.52,180.93 C677.54,178.86 677.10,178.44 675.02,178.57 C673.64,178.66 673.31,178.54 674.30,178.29 C676.83,177.67 678.39,173.16 677.08,170.28 C676.51,169.03 675.56,168.00 674.96,168.00 C674.37,168.00 674.15,167.56 674.48,167.03 C674.86,166.42 671.42,166.09 665.29,166.16 C659.91,166.22 646.50,165.87 635.50,165.37 L 615.50 164.46 L 645.00 163.83 C676.30,163.16 681.43,162.45 693.37,157.17 C707.85,150.75 725.52,132.64 727.64,122.04 L 728.25 119.00 L 651.62 119.00 C601.21,119.00 575.00,118.66 575.00,118.00 C575.00,117.40 579.26,117.00 585.75,116.99 C591.66,116.99 601.45,116.32 607.50,115.51 C613.55,114.70 620.75,114.02 623.50,113.99 C627.43,113.95 628.12,113.72 626.73,112.91 C625.76,112.34 624.13,112.14 623.12,112.46 C620.81,113.20 617.36,112.01 618.95,111.03 C620.58,110.02 619.16,107.18 616.66,106.42 C612.60,105.18 611.11,103.09 611.71,99.42 C612.04,97.38 611.76,95.41 611.01,94.51 C610.15,93.47 610.10,93.00 610.88,93.00 C611.49,93.00 612.00,92.55 612.00,92.00 C612.00,91.45 611.30,91.00 610.44,91.00 C609.58,91.00 609.13,90.60 609.44,90.10 C610.48,88.41 606.79,88.00 588.67,87.78 C574.13,87.60 576.60,87.45 601.00,87.03 C617.78,86.74 677.62,86.72 734.00,87.00 L 836.50 87.50 L 836.82 94.50 C837.83,116.49 832.38,145.20 823.08,166.93 C803.53,212.62 755.07,253.17 704.00,266.57 ZM 809.52 369.32 C805.11,378.15 800.96,385.55 800.30,385.76 C799.39,386.04 799.35,385.32 800.13,382.82 C800.70,380.99 801.41,378.60 801.72,377.50 C802.02,376.40 803.32,374.37 804.60,372.99 C807.23,370.14 810.30,362.30 809.37,360.79 C809.03,360.25 807.53,360.04 806.02,360.35 C804.47,360.66 802.45,360.30 801.33,359.52 C799.18,358.02 786.79,357.21 783.35,358.36 C782.17,358.75 780.92,360.17 780.59,361.51 C780.25,362.85 778.86,365.60 777.49,367.61 C776.12,369.63 775.00,371.67 775.00,372.14 C775.00,372.61 774.58,373.00 774.06,373.00 C773.54,373.00 775.98,367.49 779.49,360.75 C791.00,338.62 797.72,318.96 802.48,293.50 C804.96,280.25 806.99,258.47 807.00,245.03 L 807.00 237.56 L 812.39 232.03 C818.96,225.30 832.60,207.85 833.49,205.04 C835.01,200.24 835.83,203.96 836.53,218.75 C837.80,245.43 836.54,277.11 833.52,294.50 C828.58,322.96 821.22,345.89 809.52,369.32 ZM 692.25 177.27 C695.19,179.25 695.44,178.86 693.91,174.64 C692.97,172.01 692.93,170.79 693.78,169.77 C694.40,169.02 695.21,166.51 695.58,164.20 C696.23,160.15 696.16,160.00 693.58,160.00 C690.70,160.00 684.96,162.57 683.78,164.39 C683.36,165.02 684.54,166.87 686.53,168.70 C688.44,170.46 690.00,172.77 690.00,173.83 C690.00,174.89 691.01,176.44 692.25,177.27 ZM 789.41 352.50 C788.76,354.27 789.01,354.22 791.59,352.01 C793.19,350.63 795.81,348.26 797.40,346.72 L 800.30 343.93 L 798.19 341.97 C797.03,340.88 795.47,340.00 794.71,340.00 C793.12,340.00 791.38,343.21 790.65,347.50 C790.37,349.15 789.81,351.40 789.41,352.50 ZM 690.00 239.25 C690.00,239.66 688.88,240.00 687.50,240.00 C682.60,240.00 685.12,238.34 692.75,236.55 C697.01,235.55 701.06,234.52 701.75,234.26 C702.44,234.00 703.00,234.27 703.00,234.85 C703.00,235.94 696.34,238.12 692.25,238.36 C691.01,238.44 690.00,238.84 690.00,239.25 ZM 670.50 241.05 C664.98,241.91 661.51,241.90 646.00,241.00 C637.55,240.51 639.41,240.38 655.50,240.33 C668.44,240.29 673.73,240.54 670.50,241.05 ZM 693.02 185.79 C693.00,186.76 693.48,186.81 695.00,186.00 C697.23,184.81 697.56,183.47 695.89,182.43 C694.71,181.70 693.04,183.64 693.02,185.79 ZM 683.50 240.00 C683.16,240.55 681.22,240.99 679.19,240.98 C676.44,240.97 675.88,240.72 677.00,240.00 C679.00,238.71 684.30,238.71 683.50,240.00 ZM 673.00 181.00 C673.00,181.55 672.55,182.00 672.00,182.00 C671.45,182.00 671.00,181.55 671.00,181.00 C671.00,180.45 671.45,180.00 672.00,180.00 C672.55,180.00 673.00,180.45 673.00,181.00 Z" fill="rgb(252,239,66)"/>
<path d="M 0.00 512.00 L 0.00 0.00 L 512.00 0.00 L 1024.00 0.00 L 1024.00 512.00 L 1024.00 1024.00 L 512.00 1024.00 L 0.00 1024.00 L 0.00 512.00 ZM 694.44 824.95 C708.76,823.88 731.37,819.20 743.00,814.90 C774.03,803.43 807.74,771.85 822.41,740.50 C827.55,729.53 831.90,715.91 833.52,705.78 C834.33,700.68 835.43,694.47 835.96,692.00 C836.48,689.53 836.93,677.28 836.96,664.79 L 837.00 642.08 L 622.70 642.70 C473.62,643.13 407.82,643.00 406.51,642.27 C404.72,641.26 404.64,639.39 404.83,599.49 C404.96,572.61 405.43,556.12 406.16,553.14 C411.29,532.02 428.43,518.53 455.13,514.57 C463.99,513.26 477.13,513.00 534.13,512.99 C605.71,512.99 616.00,512.65 616.00,510.36 C616.00,509.61 616.93,508.07 618.07,506.93 C620.86,504.14 619.29,502.41 613.38,501.74 C610.86,501.46 608.07,500.50 607.19,499.62 C605.79,498.21 605.76,497.56 606.95,494.26 C607.70,492.19 608.45,489.38 608.60,488.00 C608.86,485.79 608.47,485.45 605.20,485.11 C603.16,484.89 599.36,484.70 596.75,484.67 C593.53,484.63 592.00,484.20 592.00,483.31 C592.00,481.21 457.92,481.41 447.89,483.52 C438.03,485.60 424.45,490.43 419.74,493.55 C417.61,494.96 415.45,495.98 414.94,495.81 C413.11,495.19 422.67,481.31 429.99,473.97 C435.51,468.44 439.75,465.28 446.00,462.06 C450.67,459.65 454.83,457.19 455.23,456.59 C456.91,454.10 455.96,451.03 453.05,449.53 C451.43,448.69 448.09,446.64 445.63,444.99 C438.62,440.25 434.23,439.04 428.31,440.22 C425.53,440.76 422.02,442.28 420.50,443.59 C418.98,444.89 417.41,445.75 417.01,445.50 C416.61,445.26 412.63,448.66 408.17,453.07 C394.56,466.54 384.31,484.09 378.36,504.10 L 375.57 513.50 L 375.24 593.10 L 374.92 672.71 L 381.11 673.35 C384.51,673.71 465.09,674.00 560.18,674.00 C716.59,674.00 733.12,674.15 733.67,675.58 C734.43,677.57 732.56,683.92 729.16,690.91 C723.74,702.03 712.34,711.65 699.19,716.19 L 692.50 718.50 L 529.50 718.50 L 366.50 718.50 L 360.58 716.25 C357.32,715.01 352.78,712.89 350.48,711.54 C343.81,707.63 335.67,698.10 332.40,690.35 L 329.50 683.50 L 329.21 610.51 C329.05,570.37 328.56,537.16 328.12,536.72 C327.36,535.96 319.86,550.98 315.76,561.50 C310.47,575.06 305.81,591.38 303.07,606.00 C299.18,626.67 298.79,632.01 299.22,659.00 C299.69,689.26 300.42,693.31 308.01,707.90 C313.54,718.54 318.32,724.57 326.64,731.43 C335.28,738.56 345.29,743.74 356.46,746.85 L 365.50 749.38 L 525.50 749.73 C627.63,749.95 688.23,749.72 693.04,749.09 C711.71,746.64 727.57,738.75 740.67,725.42 C754.18,711.66 762.54,695.65 764.52,679.75 C765.05,675.43 765.64,673.98 766.87,673.93 C775.99,673.52 805.01,673.89 805.88,674.42 C807.46,675.40 807.27,685.18 805.46,695.56 C798.04,738.14 765.81,775.50 725.68,788.04 C704.67,794.61 716.51,794.23 531.00,794.37 C372.34,794.49 361.97,794.39 353.50,792.70 C319.53,785.89 291.57,767.30 273.53,739.50 C267.06,729.53 261.00,717.81 261.00,715.26 C261.00,714.71 260.08,711.39 258.95,707.88 C255.04,695.71 253.69,683.02 253.66,658.00 C253.62,632.39 255.59,609.12 259.11,593.52 C268.94,549.98 286.83,511.43 312.05,479.46 C325.23,462.75 347.92,441.63 365.04,430.15 C369.75,426.98 371.98,424.73 373.19,421.90 L 374.85 418.00 L 371.68 417.96 C369.93,417.95 367.38,417.29 366.00,416.50 C364.62,415.71 362.40,415.05 361.06,415.04 C358.13,414.99 354.00,411.36 354.00,408.81 C354.00,407.06 353.81,407.05 350.25,408.60 C348.19,409.50 345.94,410.25 345.25,410.28 C344.56,410.31 344.00,410.71 344.00,411.17 C344.00,411.62 343.30,412.00 342.45,412.00 C341.60,412.00 339.78,413.12 338.41,414.50 C337.03,415.88 335.31,417.00 334.58,417.00 C333.84,417.00 332.68,417.67 332.00,418.50 C331.32,419.33 329.98,420.00 329.03,420.00 C326.63,420.00 304.24,441.62 294.21,453.63 C275.10,476.49 259.18,503.07 246.96,532.49 C236.05,558.76 228.39,588.92 224.86,619.50 C223.14,634.35 223.16,682.98 224.88,693.42 C234.87,753.89 273.95,800.14 330.50,818.41 C339.83,821.43 348.70,823.18 365.50,825.32 C373.02,826.28 681.33,825.93 694.44,824.95 ZM 233.02 494.50 C236.45,487.90 242.79,477.14 247.12,470.59 L 255.00 458.67 L 255.00 396.94 C255.00,343.00 254.81,335.14 253.50,334.64 C252.57,334.28 252.00,334.64 252.00,335.59 C252.00,336.43 251.55,336.84 251.00,336.50 C250.45,336.16 250.00,336.36 250.00,336.94 C250.00,337.52 249.32,338.00 248.50,338.00 C247.68,338.00 247.00,338.62 247.00,339.37 C247.00,340.78 236.28,343.63 232.62,343.20 C231.58,343.08 230.12,343.49 229.37,344.11 C228.27,345.02 228.00,344.69 227.98,342.37 C227.97,340.19 227.74,339.86 227.03,340.98 C226.39,342.00 225.98,339.95 225.75,334.48 C225.56,330.09 225.31,367.43 225.20,417.45 C225.08,471.25 225.37,508.01 225.90,507.45 C226.39,506.93 229.60,501.10 233.02,494.50 ZM 610.42 482.88 C610.18,482.49 610.55,481.94 611.24,481.66 C611.93,481.39 611.26,481.12 609.75,481.08 C607.99,481.03 607.00,481.52 607.00,482.44 C607.00,483.24 607.85,483.81 608.93,483.73 C609.99,483.65 610.66,483.27 610.42,482.88 ZM 306.17 395.52 C307.35,392.94 310.26,391.42 311.98,392.49 C313.29,393.30 318.27,388.31 317.75,386.72 C317.05,384.61 312.92,384.72 310.60,386.91 C308.96,388.45 308.09,388.69 307.26,387.86 C305.67,386.27 303.00,387.56 303.00,389.91 C303.00,390.99 302.55,392.16 302.00,392.50 C301.45,392.84 301.00,394.22 301.00,395.56 C301.00,398.91 304.64,398.88 306.17,395.52 ZM 809.52 369.32 C821.22,345.89 828.58,322.96 833.52,294.50 C836.54,277.11 837.80,245.43 836.53,218.75 C835.83,203.96 835.01,200.24 833.49,205.04 C832.60,207.85 818.96,225.30 812.39,232.03 L 807.00 237.56 L 807.00 245.03 C806.99,258.47 804.96,280.25 802.48,293.50 C797.72,318.96 791.00,338.62 779.49,360.75 C775.98,367.49 773.54,373.00 774.06,373.00 C774.58,373.00 775.00,372.61 775.00,372.14 C775.00,371.67 776.12,369.63 777.49,367.61 C778.86,365.60 780.25,362.85 780.59,361.51 C780.92,360.17 782.17,358.75 783.35,358.36 C786.79,357.21 799.18,358.02 801.33,359.52 C802.45,360.30 804.47,360.66 806.02,360.35 C807.53,360.04 809.03,360.25 809.37,360.79 C810.30,362.30 807.23,370.14 804.60,372.99 C803.32,374.37 802.02,376.40 801.72,377.50 C801.41,378.60 800.70,380.99 800.13,382.82 C799.35,385.32 799.39,386.04 800.30,385.76 C800.96,385.55 805.11,378.15 809.52,369.32 ZM 704.00 266.57 C755.07,253.17 803.53,212.62 823.08,166.93 C832.38,145.20 837.83,116.49 836.82,94.50 L 836.50 87.50 L 734.00 87.00 C677.62,86.72 617.78,86.74 601.00,87.03 C576.60,87.45 574.13,87.60 588.67,87.78 C606.79,88.00 610.48,88.41 609.44,90.10 C609.13,90.60 609.58,91.00 610.44,91.00 C611.30,91.00 612.00,91.45 612.00,92.00 C612.00,92.55 611.49,93.00 610.88,93.00 C610.10,93.00 610.15,93.47 611.01,94.51 C611.76,95.41 612.04,97.38 611.71,99.42 C611.11,103.09 612.60,105.18 616.66,106.42 C619.16,107.18 620.58,110.02 618.95,111.03 C617.36,112.01 620.81,113.20 623.12,112.46 C624.13,112.14 625.76,112.34 626.73,112.91 C628.12,113.72 627.43,113.95 623.50,113.99 C620.75,114.02 613.55,114.70 607.50,115.51 C601.45,116.32 591.66,116.99 585.75,116.99 C579.26,117.00 575.00,117.40 575.00,118.00 C575.00,118.66 601.21,119.00 651.62,119.00 L 728.25 119.00 L 727.64 122.04 C725.52,132.64 707.85,150.75 693.37,157.17 C681.43,162.45 676.30,163.16 645.00,163.83 L 615.50 164.46 L 635.50 165.37 C646.50,165.87 659.91,166.22 665.29,166.16 C671.42,166.09 674.86,166.42 674.48,167.03 C674.15,167.56 674.37,168.00 674.96,168.00 C675.56,168.00 676.51,169.03 677.08,170.28 C678.39,173.16 676.83,177.67 674.30,178.29 C673.31,178.54 673.64,178.66 675.02,178.57 C677.10,178.44 677.54,178.86 677.52,180.93 C677.51,182.66 678.13,183.57 679.50,183.84 C680.60,184.06 682.53,184.63 683.79,185.11 C685.72,185.84 685.91,186.30 685.01,187.99 C684.40,189.13 682.91,190.00 681.59,190.00 C680.30,190.00 678.66,190.71 677.94,191.58 C676.89,192.84 675.47,193.02 670.81,192.48 C666.85,192.02 665.00,192.15 665.00,192.90 C665.00,193.65 660.50,194.00 651.00,194.00 C641.37,194.00 637.00,194.35 637.00,195.12 C637.00,196.89 675.70,195.60 685.00,193.52 C703.86,189.29 722.02,178.91 736.07,164.34 C748.56,151.37 755.71,140.16 760.49,126.00 L 762.68 119.50 L 783.48 119.23 L 804.28 118.96 L 803.76 124.76 C802.59,137.62 791.84,163.11 781.79,176.84 C771.21,191.29 755.66,206.33 742.50,214.83 C732.66,221.19 715.83,229.70 709.42,231.57 C703.80,233.20 701.92,234.61 706.75,233.56 C708.26,233.23 711.42,232.78 713.76,232.55 C717.86,232.15 718.11,232.29 720.00,236.00 C721.08,238.12 722.43,240.15 722.99,240.49 C723.54,240.84 724.00,242.12 724.00,243.34 C724.00,245.71 727.13,249.00 729.39,249.00 C730.14,249.00 731.27,249.62 731.89,250.37 C733.59,252.42 731.59,253.60 721.53,256.52 C716.69,257.92 711.60,259.95 710.23,261.04 C708.85,262.12 707.23,263.00 706.62,263.01 C706.00,263.01 704.30,263.64 702.84,264.40 C701.38,265.16 697.89,266.10 695.09,266.49 C692.01,266.91 690.00,267.69 690.00,268.46 C690.00,269.88 692.87,269.49 704.00,266.57 ZM 670.50 241.05 C673.73,240.54 668.44,240.29 655.50,240.33 C639.41,240.38 637.55,240.51 646.00,241.00 C661.51,241.90 664.98,241.91 670.50,241.05 ZM 683.50 240.00 C684.30,238.71 679.00,238.71 677.00,240.00 C675.88,240.72 676.44,240.97 679.19,240.98 C681.22,240.99 683.16,240.55 683.50,240.00 ZM 690.00 239.25 C690.00,238.84 691.01,238.44 692.25,238.36 C696.34,238.12 703.00,235.94 703.00,234.85 C703.00,234.27 702.44,234.00 701.75,234.26 C701.06,234.52 697.01,235.55 692.75,236.55 C685.12,238.34 682.60,240.00 687.50,240.00 C688.88,240.00 690.00,239.66 690.00,239.25 ZM 673.00 181.00 C673.00,180.45 672.55,180.00 672.00,180.00 C671.45,180.00 671.00,180.45 671.00,181.00 C671.00,181.55 671.45,182.00 672.00,182.00 C672.55,182.00 673.00,181.55 673.00,181.00 ZM 789.41 352.50 C789.81,351.40 790.37,349.15 790.65,347.50 C791.38,343.21 793.12,340.00 794.71,340.00 C795.47,340.00 797.03,340.88 798.19,341.97 L 800.30 343.93 L 797.40 346.72 C795.81,348.26 793.19,350.63 791.59,352.01 C789.01,354.22 788.76,354.27 789.41,352.50 ZM 693.02 185.79 C693.04,183.64 694.71,181.70 695.89,182.43 C697.56,183.47 697.23,184.81 695.00,186.00 C693.48,186.81 693.00,186.76 693.02,185.79 ZM 692.25 177.27 C691.01,176.44 690.00,174.89 690.00,173.83 C690.00,172.77 688.44,170.46 686.53,168.70 C684.54,166.87 683.36,165.02 683.78,164.39 C684.96,162.57 690.70,160.00 693.58,160.00 C696.16,160.00 696.23,160.15 695.58,164.20 C695.21,166.51 694.40,169.02 693.78,169.77 C692.93,170.79 692.97,172.01 693.91,174.64 C695.44,178.86 695.19,179.25 692.25,177.27 Z" fill="rgb(252,165,46)"/>
<path d="M 0.00 512.00 L 0.00 0.00 L 512.00 0.00 L 1024.00 0.00 L 1024.00 512.00 L 1024.00 1024.00 L 512.00 1024.00 L 0.00 1024.00 L 0.00 512.00 ZM 694.44 824.95 C708.76,823.88 731.37,819.20 743.00,814.90 C774.03,803.43 807.74,771.85 822.41,740.50 C827.55,729.53 831.90,715.91 833.52,705.78 C834.33,700.68 835.43,694.47 835.96,692.00 C836.48,689.53 836.93,677.28 836.96,664.79 L 837.00 642.08 L 622.70 642.70 C473.62,643.13 407.82,643.00 406.51,642.27 C404.72,641.26 404.64,639.39 404.83,599.49 C404.96,572.61 405.43,556.12 406.16,553.14 C411.29,532.02 428.43,518.53 455.13,514.57 C463.99,513.26 477.11,513.00 534.13,513.00 C606.12,513.00 616.82,512.52 635.27,508.52 C647.04,505.96 667.47,499.65 675.05,496.22 C677.50,495.11 681.30,493.47 683.50,492.56 C685.70,491.65 692.72,487.96 699.10,484.35 C709.36,478.55 710.93,477.31 712.57,473.64 C713.60,471.36 714.45,469.07 714.47,468.54 C714.50,467.64 716.67,466.89 723.24,465.53 C726.79,464.80 730.01,460.26 727.92,458.91 C727.14,458.41 725.38,458.06 724.00,458.15 C722.62,458.23 720.18,458.23 718.56,458.15 C715.75,458.01 715.71,457.93 717.56,456.53 C719.45,455.10 719.45,455.06 717.27,455.03 C715.96,455.01 714.32,453.87 713.29,452.25 C711.14,448.89 708.69,446.90 708.01,447.95 C706.88,449.70 692.59,454.96 691.93,453.88 C691.50,453.19 691.03,453.15 690.65,453.76 C689.90,454.97 669.86,464.82 660.83,468.42 C650.71,472.45 639.03,475.60 623.00,478.62 L 608.50 481.36 L 529.00 481.99 C451.54,482.59 449.31,482.67 442.00,484.77 C431.92,487.66 422.70,491.37 419.00,494.00 C417.34,495.18 415.53,496.01 415.00,495.83 C413.12,495.19 422.57,481.42 429.99,473.97 C440.14,463.79 453.53,456.99 471.50,452.87 C474.81,452.12 499.38,451.49 544.00,451.03 C600.61,450.44 612.87,450.06 620.00,448.67 C630.42,446.65 633.96,445.26 636.34,442.26 C637.98,440.20 646.00,435.32 646.00,436.38 C646.00,436.61 648.14,436.25 650.75,435.59 C655.91,434.27 657.50,431.49 654.51,429.01 C653.22,427.94 652.49,427.93 650.53,428.98 C648.03,430.32 645.00,429.80 645.00,428.03 C645.00,427.46 645.49,427.00 646.08,427.00 C646.75,427.00 646.92,425.91 646.53,424.13 C646.07,422.04 646.32,421.09 647.45,420.66 C649.08,420.03 649.64,417.00 648.12,417.00 C647.64,417.00 645.61,417.68 643.62,418.51 C640.18,419.95 640.00,419.93 640.00,418.07 C640.00,415.08 638.83,414.92 631.90,416.96 C628.38,418.00 625.95,418.90 626.50,418.95 C627.05,419.01 626.72,419.52 625.77,420.07 C624.52,420.79 623.25,420.66 621.27,419.58 C619.74,418.76 619.09,418.06 619.81,418.04 C620.53,418.02 620.85,417.57 620.53,417.04 C620.20,416.52 619.28,416.34 618.47,416.65 C617.67,416.96 617.26,417.61 617.56,418.10 C617.87,418.60 617.19,419.00 616.06,419.00 C614.93,419.00 614.00,418.50 614.00,417.89 C614.00,417.20 613.35,417.09 612.25,417.59 C611.29,418.03 580.12,418.70 543.00,419.07 C469.97,419.80 470.16,419.78 452.53,425.66 C434.35,431.71 422.37,439.05 408.80,452.45 C394.59,466.48 384.40,483.77 378.36,504.10 L 375.57 513.50 L 375.24 593.10 L 374.92 672.71 L 381.11 673.35 C384.51,673.71 465.09,674.00 560.18,674.00 C716.59,674.00 733.12,674.15 733.67,675.58 C734.43,677.57 732.56,683.92 729.16,690.91 C723.74,702.03 712.34,711.65 699.19,716.19 L 692.50 718.50 L 529.50 718.50 L 366.50 718.50 L 360.58 716.25 C357.32,715.01 352.78,712.89 350.48,711.54 C343.81,707.63 335.67,698.10 332.40,690.35 L 329.50 683.50 L 329.21 610.51 C329.05,570.37 328.56,537.16 328.12,536.72 C327.36,535.96 319.86,550.98 315.76,561.50 C310.47,575.06 305.81,591.38 303.07,606.00 C299.18,626.67 298.79,632.01 299.22,659.00 C299.69,689.26 300.42,693.31 308.01,707.90 C313.54,718.54 318.32,724.57 326.64,731.43 C335.28,738.56 345.29,743.74 356.46,746.85 L 365.50 749.38 L 525.50 749.73 C627.63,749.95 688.23,749.72 693.04,749.09 C711.71,746.64 727.57,738.75 740.67,725.42 C754.18,711.66 762.54,695.65 764.52,679.75 C765.05,675.43 765.64,673.98 766.87,673.93 C775.99,673.52 805.01,673.89 805.88,674.42 C807.46,675.40 807.27,685.18 805.46,695.56 C798.04,738.14 765.81,775.50 725.68,788.04 C704.67,794.61 716.51,794.23 531.00,794.37 C372.34,794.49 361.97,794.39 353.50,792.70 C319.53,785.89 291.57,767.30 273.53,739.50 C267.06,729.53 261.00,717.81 261.00,715.26 C261.00,714.71 260.08,711.39 258.95,707.88 C255.04,695.71 253.69,683.02 253.66,658.00 C253.62,632.39 255.59,609.12 259.11,593.52 C268.94,549.98 286.83,511.43 312.05,479.46 C324.98,463.07 347.10,442.37 363.78,431.04 C375.97,422.77 403.49,408.77 419.00,402.94 C440.82,394.74 465.18,389.29 484.25,388.33 C491.26,387.98 497.00,387.34 497.00,386.92 C497.00,386.49 500.71,385.94 505.25,385.69 C512.60,385.29 524.22,384.37 548.00,382.33 C555.10,381.72 555.31,381.63 551.82,380.76 C549.43,380.16 548.13,379.25 548.12,378.17 C548.11,377.25 547.81,375.30 547.45,373.84 C546.93,371.70 547.29,370.85 549.29,369.54 C551.00,368.43 551.63,367.29 551.28,365.95 C550.76,363.98 547.00,363.14 547.00,365.00 C547.00,366.62 542.27,366.14 541.62,364.46 C540.93,362.65 543.16,361.55 546.02,362.29 C547.11,362.58 547.75,362.41 547.44,361.91 C547.13,361.41 544.91,361.00 542.49,361.00 C540.07,361.00 535.69,360.37 532.75,359.61 C529.80,358.84 523.80,358.19 519.41,358.16 C515.03,358.13 509.42,357.64 506.97,357.08 C496.96,354.77 473.32,356.30 452.00,360.62 C439.36,363.19 435.94,364.09 421.50,368.64 C390.84,378.30 353.73,398.81 327.23,420.74 C271.39,466.97 234.12,539.31 224.86,619.50 C223.14,634.35 223.16,682.98 224.88,693.42 C234.87,753.89 273.95,800.14 330.50,818.41 C339.83,821.43 348.70,823.18 365.50,825.32 C373.02,826.28 681.33,825.93 694.44,824.95 ZM 233.02 494.50 C236.45,487.90 242.79,477.14 247.12,470.59 L 255.00 458.67 L 255.00 341.84 C255.00,264.61 254.66,225.00 254.00,225.00 C253.45,225.00 253.00,225.70 253.00,226.56 C253.00,227.42 252.55,227.84 252.00,227.50 C251.42,227.14 251.00,228.09 251.00,229.74 C251.00,231.31 250.44,233.16 249.75,233.85 C249.06,234.53 247.80,238.33 246.95,242.30 C245.54,248.90 245.12,249.64 241.95,251.20 C240.05,252.14 237.09,252.93 235.37,252.95 L 232.23 253.00 L 231.55 245.70 C231.17,241.69 230.56,237.97 230.18,237.45 C229.13,235.98 227.00,235.85 226.98,237.25 C226.97,238.08 226.65,238.00 226.00,237.00 C225.37,236.03 225.03,283.49 225.02,371.95 C225.01,452.66 225.37,508.01 225.90,507.45 C226.39,506.93 229.60,501.10 233.02,494.50 ZM 309.31 398.21 C313.81,394.48 320.05,389.50 323.16,387.16 C328.41,383.21 328.88,382.51 329.52,377.84 C330.48,370.88 328.95,281.00 327.87,281.00 C327.39,281.00 327.00,278.52 327.00,275.50 C327.00,272.48 326.55,270.00 326.00,270.00 C325.45,270.00 325.00,269.13 325.00,268.06 C325.00,266.99 324.55,265.84 324.00,265.50 C323.41,265.13 323.00,266.32 323.00,268.42 C323.00,273.52 320.19,280.00 317.98,280.00 C316.98,280.00 314.89,278.59 313.33,276.88 C311.78,275.16 309.71,273.03 308.75,272.15 C307.79,271.27 307.00,269.93 307.00,269.17 C307.00,268.41 305.65,266.08 304.00,264.00 C302.35,261.92 301.00,259.26 301.00,258.11 C301.00,256.95 300.55,256.00 300.00,256.00 C298.87,256.00 298.54,403.21 299.67,404.33 C300.70,405.36 300.63,405.41 309.31,398.21 ZM 809.52 369.32 C821.22,345.89 828.58,322.96 833.52,294.50 C836.54,277.11 837.80,245.43 836.53,218.75 C835.83,203.96 835.01,200.24 833.49,205.04 C832.60,207.85 818.96,225.30 812.39,232.03 L 807.00 237.56 L 807.00 245.03 C806.99,258.47 804.96,280.25 802.48,293.50 C797.72,318.96 791.00,338.62 779.49,360.75 C775.98,367.49 773.54,373.00 774.06,373.00 C774.58,373.00 775.00,372.61 775.00,372.14 C775.00,371.67 776.12,369.63 777.49,367.61 C778.86,365.60 780.25,362.85 780.59,361.51 C780.92,360.17 782.17,358.75 783.35,358.36 C786.79,357.21 799.18,358.02 801.33,359.52 C802.45,360.30 804.47,360.66 806.02,360.35 C807.53,360.04 809.03,360.25 809.37,360.79 C810.30,362.30 807.23,370.14 804.60,372.99 C803.32,374.37 802.02,376.40 801.72,377.50 C801.41,378.60 800.70,380.99 800.13,382.82 C799.35,385.32 799.39,386.04 800.30,385.76 C800.96,385.55 805.11,378.15 809.52,369.32 ZM 390.98 348.59 C397.84,345.45 403.80,342.35 404.21,341.69 C405.35,339.90 405.16,327.00 404.00,327.00 C403.36,327.00 403.00,319.19 403.00,305.56 C403.00,293.77 402.64,283.90 402.20,283.62 C401.76,283.35 400.75,283.55 399.95,284.05 C399.01,284.65 398.92,284.97 399.72,284.98 C401.31,285.00 400.23,287.83 397.49,290.79 C395.49,292.95 391.24,293.05 392.56,290.90 C393.33,289.66 389.30,289.77 386.91,291.05 C385.83,291.63 385.21,292.53 385.53,293.05 C385.85,293.57 385.21,294.00 384.10,294.00 C382.57,294.00 381.80,292.98 380.95,289.83 C380.23,287.14 379.55,286.10 379.05,286.91 C377.44,289.53 376.48,287.81 375.93,281.27 C375.61,277.54 375.27,292.54 375.18,314.58 C375.08,336.63 375.30,354.96 375.66,355.32 C376.02,355.69 376.81,355.60 377.41,355.14 C378.01,354.67 384.11,351.73 390.98,348.59 ZM 704.00 266.57 C755.07,253.17 803.53,212.62 823.08,166.93 C832.38,145.20 837.83,116.49 836.82,94.50 L 836.50 87.50 L 734.00 87.00 C677.62,86.72 617.78,86.74 601.00,87.03 C576.60,87.45 574.13,87.60 588.67,87.78 C606.79,88.00 610.48,88.41 609.44,90.10 C609.13,90.60 609.58,91.00 610.44,91.00 C611.30,91.00 612.00,91.45 612.00,92.00 C612.00,92.55 611.49,93.00 610.88,93.00 C610.10,93.00 610.15,93.47 611.01,94.51 C611.76,95.41 612.04,97.38 611.71,99.42 C611.11,103.09 612.60,105.18 616.66,106.42 C619.16,107.18 620.58,110.02 618.95,111.03 C617.36,112.01 620.81,113.20 623.12,112.46 C624.13,112.14 625.76,112.34 626.73,112.91 C628.12,113.72 627.43,113.95 623.50,113.99 C620.75,114.02 613.55,114.70 607.50,115.51 C601.45,116.32 591.66,116.99 585.75,116.99 C579.26,117.00 575.00,117.40 575.00,118.00 C575.00,118.66 601.21,119.00 651.62,119.00 L 728.25 119.00 L 727.64 122.04 C725.52,132.64 707.85,150.75 693.37,157.17 C681.43,162.45 676.30,163.16 645.00,163.83 L 615.50 164.46 L 635.50 165.37 C646.50,165.87 659.91,166.22 665.29,166.16 C671.42,166.09 674.86,166.42 674.48,167.03 C674.15,167.56 674.37,168.00 674.96,168.00 C675.56,168.00 676.51,169.03 677.08,170.28 C678.39,173.16 676.83,177.67 674.30,178.29 C673.31,178.54 673.64,178.66 675.02,178.57 C677.10,178.44 677.54,178.86 677.52,180.93 C677.51,182.66 678.13,183.57 679.50,183.84 C680.60,184.06 682.53,184.63 683.79,185.11 C685.72,185.84 685.91,186.30 685.01,187.99 C684.40,189.13 682.91,190.00 681.59,190.00 C680.30,190.00 678.66,190.71 677.94,191.58 C676.89,192.84 675.47,193.02 670.81,192.48 C666.85,192.02 665.00,192.15 665.00,192.90 C665.00,193.65 660.50,194.00 651.00,194.00 C641.37,194.00 637.00,194.35 637.00,195.12 C637.00,196.89 675.70,195.60 685.00,193.52 C703.86,189.29 722.02,178.91 736.07,164.34 C748.56,151.37 755.71,140.16 760.49,126.00 L 762.68 119.50 L 783.48 119.23 L 804.28 118.96 L 803.76 124.76 C802.59,137.62 791.84,163.11 781.79,176.84 C771.21,191.29 755.66,206.33 742.50,214.83 C732.66,221.19 715.83,229.70 709.42,231.57 C703.80,233.20 701.92,234.61 706.75,233.56 C708.26,233.23 711.42,232.78 713.76,232.55 C717.86,232.15 718.11,232.29 720.00,236.00 C721.08,238.12 722.43,240.15 722.99,240.49 C723.54,240.84 724.00,242.12 724.00,243.34 C724.00,245.71 727.13,249.00 729.39,249.00 C730.14,249.00 731.27,249.62 731.89,250.37 C733.59,252.42 731.59,253.60 721.53,256.52 C716.69,257.92 711.60,259.95 710.23,261.04 C708.85,262.12 707.23,263.00 706.62,263.01 C706.00,263.01 704.30,263.64 702.84,264.40 C701.38,265.16 697.89,266.10 695.09,266.49 C692.01,266.91 690.00,267.69 690.00,268.46 C690.00,269.88 692.87,269.49 704.00,266.57 ZM 670.50 241.05 C673.73,240.54 668.44,240.29 655.50,240.33 C639.41,240.38 637.55,240.51 646.00,241.00 C661.51,241.90 664.98,241.91 670.50,241.05 ZM 683.50 240.00 C684.30,238.71 679.00,238.71 677.00,240.00 C675.88,240.72 676.44,240.97 679.19,240.98 C681.22,240.99 683.16,240.55 683.50,240.00 ZM 690.00 239.25 C690.00,238.84 691.01,238.44 692.25,238.36 C696.34,238.12 703.00,235.94 703.00,234.85 C703.00,234.27 702.44,234.00 701.75,234.26 C701.06,234.52 697.01,235.55 692.75,236.55 C685.12,238.34 682.60,240.00 687.50,240.00 C688.88,240.00 690.00,239.66 690.00,239.25 ZM 673.00 181.00 C673.00,180.45 672.55,180.00 672.00,180.00 C671.45,180.00 671.00,180.45 671.00,181.00 C671.00,181.55 671.45,182.00 672.00,182.00 C672.55,182.00 673.00,181.55 673.00,181.00 ZM 789.41 352.50 C789.81,351.40 790.37,349.15 790.65,347.50 C791.38,343.21 793.12,340.00 794.71,340.00 C795.47,340.00 797.03,340.88 798.19,341.97 L 800.30 343.93 L 797.40 346.72 C795.81,348.26 793.19,350.63 791.59,352.01 C789.01,354.22 788.76,354.27 789.41,352.50 ZM 693.02 185.79 C693.04,183.64 694.71,181.70 695.89,182.43 C697.56,183.47 697.23,184.81 695.00,186.00 C693.48,186.81 693.00,186.76 693.02,185.79 ZM 692.25 177.27 C691.01,176.44 690.00,174.89 690.00,173.83 C690.00,172.77 688.44,170.46 686.53,168.70 C684.54,166.87 683.36,165.02 683.78,164.39 C684.96,162.57 690.70,160.00 693.58,160.00 C696.16,160.00 696.23,160.15 695.58,164.20 C695.21,166.51 694.40,169.02 693.78,169.77 C692.93,170.79 692.97,172.01 693.91,174.64 C695.44,178.86 695.19,179.25 692.25,177.27 Z" fill="rgb(252,193,27)"/>
<path d="M 0.00 512.00 L 0.00 0.00 L 512.00 0.00 L 1024.00 0.00 L 1024.00 512.00 L 1024.00 1024.00 L 512.00 1024.00 L 0.00 1024.00 L 0.00 512.00 ZM 694.44 824.95 C708.76,823.88 731.37,819.20 743.00,814.90 C774.03,803.43 807.74,771.85 822.41,740.50 C827.55,729.53 831.90,715.91 833.52,705.78 C834.33,700.68 835.43,694.47 835.96,692.00 C836.48,689.53 836.93,677.28 836.96,664.79 L 837.00 642.08 L 622.70 642.70 C473.62,643.13 407.82,643.00 406.51,642.27 C404.72,641.26 404.64,639.39 404.83,599.49 C404.96,572.61 405.43,556.12 406.16,553.14 C411.29,532.02 428.43,518.53 455.13,514.57 C463.99,513.26 477.11,513.00 534.13,513.00 C606.12,513.00 616.82,512.52 635.27,508.52 C647.04,505.96 667.47,499.65 675.05,496.22 C677.50,495.11 681.30,493.47 683.50,492.56 C685.70,491.65 692.72,487.96 699.10,484.35 C709.36,478.55 710.93,477.31 712.57,473.64 C713.60,471.36 714.45,469.07 714.47,468.54 C714.50,467.64 716.67,466.89 723.24,465.53 C726.79,464.80 730.01,460.26 727.92,458.91 C727.14,458.41 725.38,458.06 724.00,458.15 C722.62,458.23 720.18,458.23 718.56,458.15 C715.75,458.01 715.71,457.93 717.56,456.53 C719.45,455.10 719.45,455.06 717.27,455.03 C715.96,455.01 714.32,453.87 713.29,452.25 C711.14,448.89 708.69,446.90 708.01,447.95 C706.88,449.70 692.59,454.96 691.93,453.88 C691.50,453.19 691.03,453.15 690.65,453.76 C689.90,454.97 669.86,464.82 660.83,468.42 C650.71,472.45 639.03,475.60 623.00,478.62 L 608.50 481.36 L 529.00 481.99 C451.54,482.59 449.31,482.67 442.00,484.77 C431.92,487.66 422.70,491.37 419.00,494.00 C417.34,495.18 415.53,496.01 415.00,495.83 C413.12,495.19 422.57,481.42 429.99,473.97 C440.14,463.79 453.53,456.99 471.50,452.87 C474.81,452.12 499.38,451.49 544.00,451.03 C600.61,450.44 612.87,450.06 620.00,448.67 C630.42,446.65 633.96,445.26 636.34,442.26 C637.98,440.20 646.00,435.32 646.00,436.38 C646.00,436.61 648.14,436.25 650.75,435.59 C655.91,434.27 657.50,431.49 654.51,429.01 C653.22,427.94 652.49,427.93 650.53,428.98 C648.03,430.32 645.00,429.80 645.00,428.03 C645.00,427.46 645.49,427.00 646.08,427.00 C646.75,427.00 646.92,425.91 646.53,424.13 C646.07,422.04 646.32,421.09 647.45,420.66 C649.08,420.03 649.64,417.00 648.12,417.00 C647.64,417.00 645.61,417.68 643.62,418.51 C640.18,419.95 640.00,419.93 640.00,418.07 C640.00,415.08 638.83,414.92 631.90,416.96 C628.38,418.00 625.95,418.90 626.50,418.95 C627.05,419.01 626.72,419.52 625.77,420.07 C624.52,420.79 623.25,420.66 621.27,419.58 C619.74,418.76 619.09,418.06 619.81,418.04 C620.53,418.02 620.85,417.57 620.53,417.04 C620.20,416.52 619.28,416.34 618.47,416.65 C617.67,416.96 617.26,417.61 617.56,418.10 C617.87,418.60 617.19,419.00 616.06,419.00 C614.93,419.00 614.00,418.50 614.00,417.89 C614.00,417.20 613.35,417.09 612.25,417.59 C611.29,418.03 580.12,418.70 543.00,419.07 C469.97,419.80 470.16,419.78 452.53,425.66 C434.35,431.71 422.37,439.05 408.80,452.45 C394.59,466.48 384.40,483.77 378.36,504.10 L 375.57 513.50 L 375.24 593.10 L 374.92 672.71 L 381.11 673.35 C384.51,673.71 465.09,674.00 560.18,674.00 C716.59,674.00 733.12,674.15 733.67,675.58 C734.43,677.57 732.56,683.92 729.16,690.91 C723.74,702.03 712.34,711.65 699.19,716.19 L 692.50 718.50 L 529.50 718.50 L 366.50 718.50 L 360.58 716.25 C357.32,715.01 352.78,712.89 350.48,711.54 C343.81,707.63 335.67,698.10 332.40,690.35 L 329.50 683.50 L 329.21 610.51 C329.05,570.37 328.56,537.16 328.12,536.72 C327.36,535.96 319.86,550.98 315.76,561.50 C310.47,575.06 305.81,591.38 303.07,606.00 C299.18,626.67 298.79,632.01 299.22,659.00 C299.69,689.26 300.42,693.31 308.01,707.90 C313.54,718.54 318.32,724.57 326.64,731.43 C335.28,738.56 345.29,743.74 356.46,746.85 L 365.50 749.38 L 525.50 749.73 C627.63,749.95 688.23,749.72 693.04,749.09 C711.71,746.64 727.57,738.75 740.67,725.42 C754.18,711.66 762.54,695.65 764.52,679.75 C765.05,675.43 765.64,673.98 766.87,673.93 C775.99,673.52 805.01,673.89 805.88,674.42 C807.46,675.40 807.27,685.18 805.46,695.56 C798.04,738.14 765.81,775.50 725.68,788.04 C704.67,794.61 716.51,794.23 531.00,794.37 C372.34,794.49 361.97,794.39 353.50,792.70 C319.53,785.89 291.57,767.30 273.53,739.50 C267.06,729.53 261.00,717.81 261.00,715.26 C261.00,714.71 260.08,711.39 258.95,707.88 C255.04,695.71 253.69,683.02 253.66,658.00 C253.62,632.39 255.59,609.12 259.11,593.52 C268.94,549.98 286.83,511.43 312.05,479.46 C324.98,463.07 347.10,442.37 363.78,431.04 C375.97,422.77 403.49,408.77 419.00,402.94 C440.82,394.74 465.18,389.29 484.25,388.33 C491.26,387.98 497.00,387.34 497.00,386.92 C497.00,386.49 500.71,385.94 505.25,385.69 C512.60,385.29 524.22,384.37 548.00,382.33 C555.10,381.72 555.31,381.63 551.82,380.76 C549.43,380.16 548.13,379.25 548.12,378.17 C548.11,377.25 547.81,375.30 547.45,373.84 C546.93,371.70 547.29,370.85 549.29,369.54 C551.00,368.43 551.63,367.29 551.28,365.95 C550.76,363.98 547.00,363.14 547.00,365.00 C547.00,366.62 542.27,366.14 541.62,364.46 C540.93,362.65 543.16,361.55 546.02,362.29 C547.11,362.58 547.75,362.41 547.44,361.91 C547.13,361.41 544.91,361.00 542.49,361.00 C540.07,361.00 535.69,360.37 532.75,359.61 C529.80,358.84 523.80,358.19 519.41,358.16 C515.03,358.13 509.42,357.64 506.97,357.08 C496.96,354.77 473.32,356.30 452.00,360.62 C439.36,363.19 435.94,364.09 421.50,368.64 C390.84,378.30 353.73,398.81 327.23,420.74 C271.39,466.97 234.12,539.31 224.86,619.50 C223.14,634.35 223.16,682.98 224.88,693.42 C234.87,753.89 273.95,800.14 330.50,818.41 C339.83,821.43 348.70,823.18 365.50,825.32 C373.02,826.28 681.33,825.93 694.44,824.95 ZM 233.02 494.50 C236.45,487.90 242.79,477.14 247.12,470.59 L 255.00 458.67 L 255.00 338.59 C255.00,212.34 255.07,210.20 259.42,198.50 C260.24,196.30 260.93,193.81 260.96,192.97 C260.98,192.14 263.25,187.01 266.01,181.58 C274.54,164.78 283.10,154.16 296.50,143.78 C304.12,137.88 311.00,130.42 311.00,128.07 C311.00,127.72 309.65,126.93 308.00,126.31 C306.35,125.68 304.71,124.42 304.36,123.49 C303.53,121.33 305.84,119.85 308.13,121.07 C309.09,121.58 311.04,122.00 312.47,122.00 C313.90,122.00 316.07,122.63 317.29,123.39 C320.84,125.63 329.28,124.30 331.71,121.10 C333.50,118.76 333.29,118.11 330.54,117.42 C329.18,117.08 327.83,116.04 327.54,115.12 C327.24,114.19 325.76,112.68 324.25,111.76 C322.74,110.85 320.06,108.72 318.30,107.04 C314.17,103.10 310.51,101.66 308.77,103.29 C300.67,110.87 299.06,111.85 293.34,112.62 C290.13,113.05 287.27,113.44 287.00,113.49 C285.80,113.70 276.18,120.90 271.41,125.15 C264.33,131.47 263.24,132.59 257.05,140.03 C243.40,156.43 233.93,175.69 227.81,199.50 L 225.50 208.50 L 225.23 358.47 C225.06,449.85 225.32,508.06 225.88,507.47 C226.38,506.94 229.60,501.10 233.02,494.50 ZM 309.31 398.21 C313.81,394.48 320.09,389.47 323.25,387.09 C327.43,383.94 329.06,382.04 329.21,380.13 C329.32,378.68 329.43,342.62 329.46,300.00 L 329.50 222.50 L 332.64 216.00 C336.41,208.19 341.39,203.23 349.63,199.08 C354.90,196.43 357.25,195.90 366.43,195.34 C374.77,194.83 376.98,194.40 376.58,193.35 C375.86,191.46 380.44,191.58 382.36,193.50 C384.68,195.82 388.96,195.33 391.65,192.43 C394.38,189.48 393.96,188.00 390.40,188.00 C386.84,188.00 383.02,183.80 382.92,179.80 C382.64,168.77 382.60,168.62 380.00,167.89 C378.62,167.51 374.61,167.15 371.08,167.10 C366.73,167.03 364.09,166.49 362.90,165.41 C361.39,164.04 360.36,163.99 355.33,165.02 C326.25,170.96 306.72,190.69 301.02,219.86 C299.09,229.77 299.00,233.96 299.00,316.94 C299.00,364.64 299.30,403.97 299.67,404.33 C300.70,405.36 300.63,405.41 309.31,398.21 ZM 809.52 369.32 C821.22,345.89 828.58,322.96 833.52,294.50 C836.54,277.11 837.80,245.43 836.53,218.75 C835.83,203.96 835.01,200.24 833.49,205.04 C832.60,207.85 818.96,225.30 812.39,232.03 L 807.00 237.56 L 807.00 245.03 C806.99,258.47 804.96,280.25 802.48,293.50 C797.72,318.96 791.00,338.62 779.49,360.75 C775.98,367.49 773.54,373.00 774.06,373.00 C774.58,373.00 775.00,372.61 775.00,372.14 C775.00,371.67 776.12,369.63 777.49,367.61 C778.86,365.60 780.25,362.85 780.59,361.51 C780.92,360.17 782.17,358.75 783.35,358.36 C786.79,357.21 799.18,358.02 801.33,359.52 C802.45,360.30 804.47,360.66 806.02,360.35 C807.53,360.04 809.03,360.25 809.37,360.79 C810.30,362.30 807.23,370.14 804.60,372.99 C803.32,374.37 802.02,376.40 801.72,377.50 C801.41,378.60 800.70,380.99 800.13,382.82 C799.35,385.32 799.39,386.04 800.30,385.76 C800.96,385.55 805.11,378.15 809.52,369.32 ZM 390.98 348.59 C397.84,345.45 403.80,342.35 404.21,341.69 C405.35,339.90 405.16,327.00 404.00,327.00 C403.36,327.00 403.00,318.83 403.00,304.50 C403.00,292.12 402.65,282.00 402.22,282.00 C400.45,282.00 399.16,276.04 400.28,273.07 C401.55,269.72 405.70,267.30 407.35,268.95 C408.60,270.20 535.40,270.46 534.63,269.21 C534.37,268.78 534.90,268.38 535.82,268.33 C540.72,268.03 554.00,265.59 554.00,264.98 C554.00,264.60 551.70,264.01 548.89,263.67 C546.08,263.34 542.23,262.15 540.33,261.03 C538.44,259.92 536.02,259.00 534.96,259.00 C533.81,259.00 532.06,257.47 530.65,255.25 C529.35,253.18 527.10,250.85 525.64,250.08 C524.19,249.30 523.00,248.33 523.00,247.92 C523.00,247.52 525.36,246.82 528.25,246.38 L 533.50 245.58 L 527.50 244.76 C524.20,244.32 515.65,243.45 508.50,242.85 C501.35,242.24 495.26,241.37 494.96,240.90 C494.66,240.43 467.66,240.15 434.96,240.28 L 375.50 240.50 L 375.24 297.00 C375.10,328.08 375.22,354.11 375.50,354.86 C375.86,355.79 376.42,355.91 377.26,355.26 C377.94,354.73 384.11,351.73 390.98,348.59 ZM 704.00 266.57 C755.07,253.17 803.53,212.62 823.08,166.93 C832.38,145.20 837.83,116.49 836.82,94.50 L 836.50 87.50 L 734.00 87.00 C677.62,86.72 617.78,86.74 601.00,87.03 C576.60,87.45 574.13,87.60 588.67,87.78 C606.79,88.00 610.48,88.41 609.44,90.10 C609.13,90.60 609.58,91.00 610.44,91.00 C611.30,91.00 612.00,91.45 612.00,92.00 C612.00,92.55 611.49,93.00 610.88,93.00 C610.10,93.00 610.15,93.47 611.01,94.51 C611.76,95.41 612.04,97.38 611.71,99.42 C611.11,103.09 612.60,105.18 616.66,106.42 C619.16,107.18 620.58,110.02 618.95,111.03 C617.36,112.01 620.81,113.20 623.12,112.46 C624.13,112.14 625.76,112.34 626.73,112.91 C628.12,113.72 627.43,113.95 623.50,113.99 C620.75,114.02 613.55,114.70 607.50,115.51 C601.45,116.32 591.66,116.99 585.75,116.99 C579.26,117.00 575.00,117.40 575.00,118.00 C575.00,118.66 601.21,119.00 651.62,119.00 L 728.25 119.00 L 727.64 122.04 C725.52,132.64 707.85,150.75 693.37,157.17 C681.43,162.45 676.30,163.16 645.00,163.83 L 615.50 164.46 L 635.50 165.37 C646.50,165.87 659.91,166.22 665.29,166.16 C671.42,166.09 674.86,166.42 674.48,167.03 C674.15,167.56 674.37,168.00 674.96,168.00 C675.56,168.00 676.51,169.03 677.08,170.28 C678.39,173.16 676.83,177.67 674.30,178.29 C673.31,178.54 673.64,178.66 675.02,178.57 C677.10,178.44 677.54,178.86 677.52,180.93 C677.51,182.66 678.13,183.57 679.50,183.84 C680.60,184.06 682.53,184.63 683.79,185.11 C685.72,185.84 685.91,186.30 685.01,187.99 C684.40,189.13 682.91,190.00 681.59,190.00 C680.30,190.00 678.66,190.71 677.94,191.58 C676.89,192.84 675.47,193.02 670.81,192.48 C666.85,192.02 665.00,192.15 665.00,192.90 C665.00,193.65 660.50,194.00 651.00,194.00 C641.37,194.00 637.00,194.35 637.00,195.12 C637.00,196.89 675.70,195.60 685.00,193.52 C703.86,189.29 722.02,178.91 736.07,164.34 C748.56,151.37 755.71,140.16 760.49,126.00 L 762.68 119.50 L 783.48 119.23 L 804.28 118.96 L 803.76 124.76 C802.59,137.62 791.84,163.11 781.79,176.84 C771.21,191.29 755.66,206.33 742.50,214.83 C732.66,221.19 715.83,229.70 709.42,231.57 C703.80,233.20 701.92,234.61 706.75,233.56 C708.26,233.23 711.42,232.78 713.76,232.55 C717.86,232.15 718.11,232.29 720.00,236.00 C721.08,238.12 722.43,240.15 722.99,240.49 C723.54,240.84 724.00,242.12 724.00,243.34 C724.00,245.71 727.13,249.00 729.39,249.00 C730.14,249.00 731.27,249.62 731.89,250.37 C733.59,252.42 731.59,253.60 721.53,256.52 C716.69,257.92 711.60,259.95 710.23,261.04 C708.85,262.12 707.23,263.00 706.62,263.01 C706.00,263.01 704.30,263.64 702.84,264.40 C701.38,265.16 697.89,266.10 695.09,266.49 C692.01,266.91 690.00,267.69 690.00,268.46 C690.00,269.88 692.87,269.49 704.00,266.57 ZM 670.50 241.05 C673.73,240.54 668.44,240.29 655.50,240.33 C639.41,240.38 637.55,240.51 646.00,241.00 C661.51,241.90 664.98,241.91 670.50,241.05 ZM 683.50 240.00 C684.30,238.71 679.00,238.71 677.00,240.00 C675.88,240.72 676.44,240.97 679.19,240.98 C681.22,240.99 683.16,240.55 683.50,240.00 ZM 690.00 239.25 C690.00,238.84 691.01,238.44 692.25,238.36 C696.34,238.12 703.00,235.94 703.00,234.85 C703.00,234.27 702.44,234.00 701.75,234.26 C701.06,234.52 697.01,235.55 692.75,236.55 C685.12,238.34 682.60,240.00 687.50,240.00 C688.88,240.00 690.00,239.66 690.00,239.25 ZM 673.00 181.00 C673.00,180.45 672.55,180.00 672.00,180.00 C671.45,180.00 671.00,180.45 671.00,181.00 C671.00,181.55 671.45,182.00 672.00,182.00 C672.55,182.00 673.00,181.55 673.00,181.00 ZM 789.41 352.50 C789.81,351.40 790.37,349.15 790.65,347.50 C791.38,343.21 793.12,340.00 794.71,340.00 C795.47,340.00 797.03,340.88 798.19,341.97 L 800.30 343.93 L 797.40 346.72 C795.81,348.26 793.19,350.63 791.59,352.01 C789.01,354.22 788.76,354.27 789.41,352.50 ZM 693.02 185.79 C693.04,183.64 694.71,181.70 695.89,182.43 C697.56,183.47 697.23,184.81 695.00,186.00 C693.48,186.81 693.00,186.76 693.02,185.79 ZM 692.25 177.27 C691.01,176.44 690.00,174.89 690.00,173.83 C690.00,172.77 688.44,170.46 686.53,168.70 C684.54,166.87 683.36,165.02 683.78,164.39 C684.96,162.57 690.70,160.00 693.58,160.00 C696.16,160.00 696.23,160.15 695.58,164.20 C695.21,166.51 694.40,169.02 693.78,169.77 C692.93,170.79 692.97,172.01 693.91,174.64 C695.44,178.86 695.19,179.25 692.25,177.27 Z" fill="rgb(252,198,59)"/>
<path d="M 0.00 512.00 L 0.00 0.00 L 512.00 0.00 L 1024.00 0.00 L 1024.00 512.00 L 1024.00 1024.00 L 512.00 1024.00 L 0.00 1024.00 L 0.00 512.00 ZM 694.44 824.95 C708.76,823.88 731.37,819.20 743.00,814.90 C774.03,803.43 807.74,771.85 822.41,740.50 C827.55,729.53 831.90,715.91 833.52,705.78 C834.33,700.68 835.43,694.47 835.96,692.00 C836.48,689.53 836.93,677.28 836.96,664.79 L 837.00 642.08 L 622.70 642.70 C473.62,643.13 407.82,643.00 406.51,642.27 C404.72,641.26 404.64,639.39 404.83,599.49 C404.96,572.61 405.43,556.12 406.16,553.14 C411.29,532.02 428.43,518.53 455.13,514.57 C463.99,513.26 477.11,513.00 534.13,513.00 C572.97,513.00 607.15,512.56 613.27,511.98 C632.15,510.19 660.66,502.79 676.37,495.60 C679.50,494.17 682.39,493.00 682.80,493.00 C683.21,493.00 688.49,490.25 694.52,486.89 C700.56,483.53 708.42,479.17 712.00,477.20 C739.28,462.18 779.06,422.96 794.06,396.30 C795.85,393.11 798.77,388.48 800.53,386.00 C805.59,378.88 817.41,353.64 821.83,340.50 C832.05,310.10 835.89,288.55 836.70,257.00 C837.32,233.14 836.34,203.00 834.96,203.00 C834.51,203.00 833.84,203.92 833.49,205.04 C832.60,207.85 818.96,225.30 812.39,232.03 L 807.00 237.56 L 807.00 245.03 C806.98,277.20 800.50,311.63 789.04,340.50 C778.40,367.28 760.51,394.29 739.34,415.50 C717.69,437.21 702.31,448.50 678.00,460.56 C658.31,470.32 646.59,474.17 623.00,478.62 L 608.50 481.36 L 529.00 481.99 C451.54,482.59 449.31,482.67 442.00,484.77 C431.92,487.66 422.70,491.37 419.00,494.00 C417.34,495.18 415.53,496.01 415.00,495.83 C413.12,495.19 422.57,481.42 429.99,473.97 C440.14,463.79 453.53,456.99 471.50,452.87 C474.81,452.12 499.38,451.49 544.00,451.03 C612.66,450.31 618.40,449.99 631.35,446.12 C633.08,445.60 637.71,444.23 641.62,443.07 C658.68,438.04 678.58,425.69 692.77,411.35 C704.75,399.24 715.21,381.58 716.71,370.96 C717.39,366.10 714.83,360.48 710.81,358.03 C707.54,356.03 706.07,356.01 596.36,356.00 C526.43,356.00 481.37,356.39 474.86,357.04 C464.14,358.12 443.23,362.06 434.50,364.64 C411.71,371.37 402.05,375.16 381.81,385.28 C364.17,394.09 342.11,408.43 327.23,420.74 C271.39,466.97 234.12,539.31 224.86,619.50 C223.14,634.35 223.16,682.98 224.88,693.42 C234.87,753.89 273.95,800.14 330.50,818.41 C339.83,821.43 348.70,823.18 365.50,825.32 C373.02,826.28 681.33,825.93 694.44,824.95 ZM 233.02 494.50 C236.45,487.90 242.79,477.14 247.12,470.59 L 255.00 458.67 L 255.00 338.59 C255.00,212.34 255.07,210.20 259.42,198.50 C260.24,196.30 260.93,193.81 260.96,192.97 C260.98,192.14 263.25,187.01 266.01,181.58 C274.54,164.78 283.10,154.16 296.50,143.78 C304.12,137.88 311.00,130.42 311.00,128.07 C311.00,127.72 309.65,126.93 308.00,126.31 C306.35,125.68 304.71,124.42 304.36,123.49 C303.53,121.33 305.84,119.85 308.13,121.07 C309.09,121.58 311.04,122.00 312.47,122.00 C313.90,122.00 316.07,122.63 317.29,123.39 C320.84,125.63 329.28,124.30 331.71,121.10 C333.50,118.76 333.29,118.11 330.54,117.42 C329.18,117.08 327.83,116.04 327.54,115.12 C327.24,114.19 325.76,112.68 324.25,111.76 C322.74,110.85 320.06,108.72 318.30,107.04 C314.17,103.10 310.51,101.66 308.77,103.29 C300.67,110.87 299.06,111.85 293.34,112.62 C290.13,113.05 287.27,113.44 287.00,113.49 C285.80,113.70 276.18,120.90 271.41,125.15 C264.33,131.47 263.24,132.59 257.05,140.03 C243.40,156.43 233.93,175.69 227.81,199.50 L 225.50 208.50 L 225.23 358.47 C225.06,449.85 225.32,508.06 225.88,507.47 C226.38,506.94 229.60,501.10 233.02,494.50 ZM 309.31 398.21 C313.81,394.48 320.09,389.47 323.25,387.09 C327.43,383.94 329.06,382.04 329.21,380.13 C329.32,378.68 329.43,342.62 329.46,300.00 L 329.50 222.50 L 332.64 216.00 C336.41,208.19 341.39,203.23 349.63,199.08 C354.90,196.43 357.25,195.90 366.43,195.34 C374.77,194.83 376.98,194.40 376.58,193.35 C375.86,191.46 380.44,191.58 382.36,193.50 C384.68,195.82 388.96,195.33 391.65,192.43 C394.38,189.48 393.96,188.00 390.40,188.00 C386.84,188.00 383.02,183.80 382.92,179.80 C382.64,168.77 382.60,168.62 380.00,167.89 C378.62,167.51 374.61,167.15 371.08,167.10 C366.73,167.03 364.09,166.49 362.90,165.41 C361.39,164.04 360.36,163.99 355.33,165.02 C326.25,170.96 306.72,190.69 301.02,219.86 C299.09,229.77 299.00,233.96 299.00,316.94 C299.00,364.64 299.30,403.97 299.67,404.33 C300.70,405.36 300.63,405.41 309.31,398.21 ZM 390.98 348.59 C397.84,345.45 403.80,342.35 404.21,341.69 C404.63,341.04 404.98,325.09 404.98,306.25 L 405.00 272.00 L 492.44 272.00 C549.66,272.00 580.10,271.65 580.50,271.00 C580.91,270.34 573.20,270.00 558.12,270.00 C545.47,270.00 534.90,269.65 534.63,269.21 C534.37,268.78 534.90,268.38 535.82,268.33 C540.72,268.03 554.00,265.59 554.00,264.98 C554.00,264.60 551.70,264.01 548.89,263.67 C546.08,263.34 542.23,262.15 540.33,261.03 C538.44,259.92 536.02,259.00 534.96,259.00 C533.81,259.00 532.06,257.47 530.65,255.25 C529.35,253.18 527.10,250.85 525.64,250.08 C524.19,249.30 523.00,248.33 523.00,247.92 C523.00,247.52 525.36,246.82 528.25,246.38 L 533.50 245.58 L 527.50 244.76 C524.20,244.32 515.65,243.45 508.50,242.85 C501.35,242.24 495.26,241.37 494.96,240.90 C494.66,240.43 467.66,240.15 434.96,240.28 L 375.50 240.50 L 375.24 297.00 C375.10,328.08 375.22,354.11 375.50,354.86 C375.86,355.79 376.42,355.91 377.26,355.26 C377.94,354.73 384.11,351.73 390.98,348.59 ZM 704.00 266.57 C755.07,253.17 803.53,212.62 823.08,166.93 C832.38,145.20 837.83,116.49 836.82,94.50 L 836.50 87.50 L 734.00 87.00 C677.62,86.72 617.78,86.74 601.00,87.03 C576.60,87.45 574.13,87.60 588.67,87.78 C606.79,88.00 610.48,88.41 609.44,90.10 C609.13,90.60 609.58,91.00 610.44,91.00 C611.30,91.00 612.00,91.45 612.00,92.00 C612.00,92.55 611.49,93.00 610.88,93.00 C610.10,93.00 610.15,93.47 611.01,94.51 C611.76,95.41 612.04,97.38 611.71,99.42 C611.11,103.09 612.60,105.18 616.66,106.42 C619.16,107.18 620.58,110.02 618.95,111.03 C617.36,112.01 620.81,113.20 623.12,112.46 C624.13,112.14 625.76,112.34 626.73,112.91 C628.12,113.72 627.43,113.95 623.50,113.99 C620.75,114.02 613.55,114.70 607.50,115.51 C601.45,116.32 591.66,116.99 585.75,116.99 C579.26,117.00 575.00,117.40 575.00,118.00 C575.00,118.66 601.21,119.00 651.62,119.00 L 728.25 119.00 L 727.64 122.04 C725.52,132.64 707.85,150.75 693.37,157.17 C681.43,162.45 676.30,163.16 645.00,163.83 L 615.50 164.46 L 635.50 165.37 C646.50,165.87 659.91,166.22 665.29,166.16 C671.42,166.09 674.86,166.42 674.48,167.03 C674.15,167.56 674.37,168.00 674.96,168.00 C675.56,168.00 676.51,169.03 677.08,170.28 C678.39,173.16 676.83,177.67 674.30,178.29 C673.31,178.54 673.64,178.66 675.02,178.57 C677.10,178.44 677.54,178.86 677.52,180.93 C677.51,182.66 678.13,183.57 679.50,183.84 C680.60,184.06 682.53,184.63 683.79,185.11 C685.72,185.84 685.91,186.30 685.01,187.99 C684.40,189.13 682.91,190.00 681.59,190.00 C680.30,190.00 678.66,190.71 677.94,191.58 C676.89,192.84 675.47,193.02 670.81,192.48 C666.85,192.02 665.00,192.15 665.00,192.90 C665.00,193.65 660.50,194.00 651.00,194.00 C641.37,194.00 637.00,194.35 637.00,195.12 C637.00,196.89 675.70,195.60 685.00,193.52 C703.86,189.29 722.02,178.91 736.07,164.34 C748.56,151.37 755.71,140.16 760.49,126.00 L 762.68 119.50 L 783.48 119.23 L 804.28 118.96 L 803.76 124.76 C802.59,137.62 791.84,163.11 781.79,176.84 C771.21,191.29 755.66,206.33 742.50,214.83 C732.66,221.19 715.83,229.70 709.42,231.57 C703.80,233.20 701.92,234.61 706.75,233.56 C708.26,233.23 711.42,232.78 713.76,232.55 C717.86,232.15 718.11,232.29 720.00,236.00 C721.08,238.12 722.43,240.15 722.99,240.49 C723.54,240.84 724.00,242.12 724.00,243.34 C724.00,245.71 727.13,249.00 729.39,249.00 C730.14,249.00 731.27,249.62 731.89,250.37 C733.59,252.42 731.59,253.60 721.53,256.52 C716.69,257.92 711.60,259.95 710.23,261.04 C708.85,262.12 707.23,263.00 706.62,263.01 C706.00,263.01 704.30,263.64 702.84,264.40 C701.38,265.16 697.89,266.10 695.09,266.49 C692.01,266.91 690.00,267.69 690.00,268.46 C690.00,269.88 692.87,269.49 704.00,266.57 ZM 670.50 241.05 C673.73,240.54 668.44,240.29 655.50,240.33 C639.41,240.38 637.55,240.51 646.00,241.00 C661.51,241.90 664.98,241.91 670.50,241.05 ZM 683.50 240.00 C684.30,238.71 679.00,238.71 677.00,240.00 C675.88,240.72 676.44,240.97 679.19,240.98 C681.22,240.99 683.16,240.55 683.50,240.00 ZM 690.00 239.25 C690.00,238.84 691.01,238.44 692.25,238.36 C696.34,238.12 703.00,235.94 703.00,234.85 C703.00,234.27 702.44,234.00 701.75,234.26 C701.06,234.52 697.01,235.55 692.75,236.55 C685.12,238.34 682.60,240.00 687.50,240.00 C688.88,240.00 690.00,239.66 690.00,239.25 ZM 673.00 181.00 C673.00,180.45 672.55,180.00 672.00,180.00 C671.45,180.00 671.00,180.45 671.00,181.00 C671.00,181.55 671.45,182.00 672.00,182.00 C672.55,182.00 673.00,181.55 673.00,181.00 ZM 365.50 794.41 C353.12,792.59 343.43,790.54 337.17,788.43 C310.38,779.37 288.49,762.54 273.53,739.50 C267.06,729.53 261.00,717.81 261.00,715.26 C261.00,714.71 260.08,711.39 258.95,707.88 C255.04,695.71 253.69,683.02 253.66,658.00 C253.62,632.39 255.59,609.12 259.11,593.52 C271.01,540.81 294.24,496.27 327.91,461.64 C343.99,445.10 361.81,431.21 378.28,422.37 C411.80,404.38 425.63,399.04 457.50,391.78 L 471.50 388.59 L 570.75 388.26 C649.24,387.99 670.00,388.18 670.00,389.16 C670.00,391.01 661.01,399.04 654.69,402.83 C643.61,409.47 630.92,414.14 615.73,417.17 C612.68,417.77 582.29,418.53 543.00,418.97 C470.04,419.80 470.12,419.80 452.53,425.66 C434.35,431.71 422.37,439.05 408.80,452.45 C394.59,466.48 384.40,483.77 378.36,504.10 L 375.57 513.50 L 375.24 593.10 L 374.92 672.71 L 381.11 673.35 C384.51,673.71 465.09,674.00 560.18,674.00 C716.59,674.00 733.12,674.15 733.67,675.58 C734.43,677.57 732.56,683.92 729.16,690.91 C723.74,702.03 712.34,711.65 699.19,716.19 L 692.50 718.50 L 529.50 718.50 L 366.50 718.50 L 360.58 716.25 C357.32,715.01 352.78,712.89 350.48,711.54 C343.81,707.63 335.67,698.10 332.40,690.35 L 329.50 683.50 L 329.21 610.51 C329.05,570.37 328.56,537.16 328.12,536.72 C327.36,535.96 319.86,550.98 315.76,561.50 C310.47,575.06 305.81,591.38 303.07,606.00 C299.18,626.67 298.79,632.01 299.22,659.00 C299.69,689.26 300.42,693.31 308.01,707.90 C313.54,718.54 318.32,724.57 326.64,731.43 C335.28,738.56 345.29,743.74 356.46,746.85 L 365.50 749.38 L 525.50 749.73 C627.63,749.95 688.23,749.72 693.04,749.09 C711.71,746.64 727.57,738.75 740.67,725.42 C754.18,711.66 762.54,695.65 764.52,679.75 C765.05,675.43 765.64,673.98 766.87,673.93 C775.99,673.52 805.01,673.89 805.88,674.42 C807.46,675.40 807.27,685.18 805.46,695.56 C798.04,738.13 765.81,775.50 725.72,788.03 C705.09,794.48 716.66,794.09 534.50,794.49 C443.20,794.68 367.15,794.65 365.50,794.41 ZM 693.02 185.79 C693.04,183.64 694.71,181.70 695.89,182.43 C697.56,183.47 697.23,184.81 695.00,186.00 C693.48,186.81 693.00,186.76 693.02,185.79 ZM 692.25 177.27 C691.01,176.44 690.00,174.89 690.00,173.83 C690.00,172.77 688.44,170.46 686.53,168.70 C684.54,166.87 683.36,165.02 683.78,164.39 C684.96,162.57 690.70,160.00 693.58,160.00 C696.16,160.00 696.23,160.15 695.58,164.20 C695.21,166.51 694.40,169.02 693.78,169.77 C692.93,170.79 692.97,172.01 693.91,174.64 C695.44,178.86 695.19,179.25 692.25,177.27 Z" fill="rgb(252,224,31)"/>
<path d="M 0.00 512.00 L 0.00 0.00 L 512.00 0.00 L 1024.00 0.00 L 1024.00 512.00 L 1024.00 1024.00 L 512.00 1024.00 L 0.00 1024.00 L 0.00 512.00 ZM 694.44 824.95 C708.76,823.88 731.37,819.20 743.00,814.90 C774.03,803.43 807.74,771.85 822.41,740.50 C827.55,729.53 831.90,715.91 833.52,705.78 C834.33,700.68 835.43,694.47 835.96,692.00 C836.48,689.53 836.93,677.28 836.96,664.79 L 837.00 642.08 L 622.70 642.70 C473.62,643.13 407.82,643.00 406.51,642.27 C404.72,641.26 404.64,639.39 404.83,599.49 C404.96,572.61 405.43,556.12 406.16,553.14 C411.29,532.02 428.43,518.53 455.13,514.57 C463.99,513.26 477.11,513.00 534.13,513.00 C572.97,513.00 607.15,512.56 613.27,511.98 C632.15,510.19 660.66,502.79 676.37,495.60 C679.50,494.17 682.39,493.00 682.80,493.00 C683.21,493.00 688.49,490.25 694.52,486.89 C700.56,483.53 708.42,479.17 712.00,477.20 C739.28,462.18 779.06,422.96 794.06,396.30 C795.85,393.11 798.77,388.48 800.53,386.00 C805.59,378.88 817.41,353.64 821.83,340.50 C832.05,310.10 835.89,288.55 836.70,257.00 C837.32,233.14 836.34,203.00 834.96,203.00 C834.51,203.00 833.84,203.92 833.49,205.04 C832.60,207.85 818.96,225.30 812.39,232.03 L 807.00 237.56 L 807.00 245.03 C806.98,277.20 800.50,311.63 789.04,340.50 C778.40,367.28 760.51,394.29 739.34,415.50 C717.69,437.21 702.31,448.50 678.00,460.56 C658.31,470.32 646.59,474.17 623.00,478.62 L 608.50 481.36 L 529.00 481.99 C451.54,482.59 449.31,482.67 442.00,484.77 C431.92,487.66 422.70,491.37 419.00,494.00 C417.34,495.18 415.53,496.01 415.00,495.83 C413.12,495.19 422.57,481.42 429.99,473.97 C440.14,463.79 453.53,456.99 471.50,452.87 C474.81,452.12 499.38,451.49 544.00,451.03 C612.66,450.31 618.40,449.99 631.35,446.12 C633.08,445.60 637.71,444.23 641.62,443.07 C658.68,438.04 678.58,425.69 692.77,411.35 C704.75,399.24 715.21,381.58 716.71,370.96 C717.39,366.10 714.83,360.48 710.81,358.03 C707.54,356.03 706.07,356.01 596.36,356.00 C526.43,356.00 481.37,356.39 474.86,357.04 C464.14,358.12 443.23,362.06 434.50,364.64 C411.71,371.37 402.05,375.16 381.81,385.28 C364.17,394.09 342.11,408.43 327.23,420.74 C271.39,466.97 234.12,539.31 224.86,619.50 C223.14,634.35 223.16,682.98 224.88,693.42 C234.87,753.89 273.95,800.14 330.50,818.41 C339.83,821.43 348.70,823.18 365.50,825.32 C373.02,826.28 681.33,825.93 694.44,824.95 ZM 233.02 494.50 C236.45,487.90 242.79,477.14 247.12,470.59 L 255.00 458.67 L 255.00 338.59 C255.00,212.34 255.07,210.20 259.42,198.50 C260.24,196.30 260.93,193.81 260.96,192.97 C261.02,190.66 270.53,172.40 274.68,166.61 C291.27,143.46 316.95,126.91 345.56,120.94 C355.34,118.89 354.43,118.90 639.88,118.98 L 728.25 119.00 L 727.64 122.04 C725.52,132.64 707.85,150.75 693.37,157.17 C690.69,158.35 685.35,160.24 681.50,161.36 C674.62,163.37 671.80,163.41 514.50,163.95 L 354.50 164.50 L 345.74 167.63 C333.85,171.89 326.81,176.24 318.90,184.25 C309.88,193.38 303.81,205.47 301.01,219.86 C299.09,229.75 299.00,234.16 299.00,317.05 C299.00,373.50 299.35,404.10 299.99,404.50 C300.54,404.83 304.70,402.03 309.24,398.27 C313.78,394.50 320.09,389.47 323.25,387.09 C327.43,383.94 329.06,382.04 329.21,380.13 C329.32,378.68 329.43,342.62 329.46,300.00 L 329.50 222.50 L 332.64 216.00 C336.44,208.13 341.36,203.27 350.00,198.83 L 356.50 195.50 L 516.00 195.41 C694.52,195.30 682.99,195.76 701.64,188.09 C714.22,182.91 725.97,174.81 736.07,164.34 C748.56,151.37 755.71,140.16 760.49,126.00 L 762.68 119.50 L 783.48 119.23 L 804.28 118.96 L 803.76 124.76 C803.02,132.88 796.83,150.76 790.91,161.84 C782.54,177.54 773.48,188.89 759.00,201.82 C739.86,218.92 720.59,229.03 692.50,236.73 C680.65,239.97 676.91,240.05 510.00,240.30 L 375.50 240.50 L 375.24 297.00 C375.10,328.08 375.22,354.11 375.50,354.86 C375.86,355.79 376.42,355.91 377.26,355.26 C377.94,354.73 384.11,351.73 390.98,348.59 C397.84,345.45 403.80,342.35 404.21,341.69 C404.63,341.04 404.98,325.09 404.98,306.25 L 405.00 272.00 L 485.75 271.87 C570.65,271.73 674.30,270.64 687.00,269.76 C705.36,268.47 734.29,257.36 756.00,243.27 C796.91,216.70 823.92,178.98 833.02,135.69 C835.37,124.53 837.26,104.04 836.82,94.50 L 836.50 87.50 L 736.50 87.00 C681.50,86.72 571.70,86.74 492.50,87.03 L 348.50 87.55 L 337.00 90.69 C330.67,92.41 322.38,95.01 318.57,96.46 C309.34,99.97 293.17,108.33 287.94,112.30 C285.62,114.06 281.76,116.89 279.36,118.59 C273.17,122.99 263.35,132.41 257.06,140.00 C243.35,156.53 233.93,175.70 227.81,199.50 L 225.50 208.50 L 225.23 358.47 C225.06,449.85 225.32,508.06 225.88,507.47 C226.38,506.94 229.60,501.10 233.02,494.50 ZM 365.50 794.41 C353.12,792.59 343.43,790.54 337.17,788.43 C310.38,779.37 288.49,762.54 273.53,739.50 C267.06,729.53 261.00,717.81 261.00,715.26 C261.00,714.71 260.08,711.39 258.95,707.88 C255.04,695.71 253.69,683.02 253.66,658.00 C253.62,632.39 255.59,609.12 259.11,593.52 C271.01,540.81 294.24,496.27 327.91,461.64 C343.99,445.10 361.81,431.21 378.28,422.37 C411.80,404.38 425.63,399.04 457.50,391.78 L 471.50 388.59 L 570.75 388.26 C649.24,387.99 670.00,388.18 670.00,389.16 C670.00,391.01 661.01,399.04 654.69,402.83 C643.61,409.47 630.92,414.14 615.73,417.17 C612.68,417.77 582.29,418.53 543.00,418.97 C470.04,419.80 470.12,419.80 452.53,425.66 C434.35,431.71 422.37,439.05 408.80,452.45 C394.59,466.48 384.40,483.77 378.36,504.10 L 375.57 513.50 L 375.24 593.10 L 374.92 672.71 L 381.11 673.35 C384.51,673.71 465.09,674.00 560.18,674.00 C716.59,674.00 733.12,674.15 733.67,675.58 C734.43,677.57 732.56,683.92 729.16,690.91 C723.74,702.03 712.34,711.65 699.19,716.19 L 692.50 718.50 L 529.50 718.50 L 366.50 718.50 L 360.58 716.25 C357.32,715.01 352.78,712.89 350.48,711.54 C343.81,707.63 335.67,698.10 332.40,690.35 L 329.50 683.50 L 329.21 610.51 C329.05,570.37 328.56,537.16 328.12,536.72 C327.36,535.96 319.86,550.98 315.76,561.50 C310.47,575.06 305.81,591.38 303.07,606.00 C299.18,626.67 298.79,632.01 299.22,659.00 C299.69,689.26 300.42,693.31 308.01,707.90 C313.54,718.54 318.32,724.57 326.64,731.43 C335.28,738.56 345.29,743.74 356.46,746.85 L 365.50 749.38 L 525.50 749.73 C627.63,749.95 688.23,749.72 693.04,749.09 C711.71,746.64 727.57,738.75 740.67,725.42 C754.18,711.66 762.54,695.65 764.52,679.75 C765.05,675.43 765.64,673.98 766.87,673.93 C775.99,673.52 805.01,673.89 805.88,674.42 C807.46,675.40 807.27,685.18 805.46,695.56 C798.04,738.13 765.81,775.50 725.72,788.03 C705.09,794.48 716.66,794.09 534.50,794.49 C443.20,794.68 367.15,794.65 365.50,794.41 Z" fill="rgb(253,235,227)"/>
<path d="M 0.00 512.00 L 0.00 0.00 L 512.00 0.00 L 1024.00 0.00 L 1024.00 512.00 L 1024.00 1024.00 L 512.00 1024.00 L 0.00 1024.00 L 0.00 512.00 ZM 694.44 824.95 C708.76,823.88 731.37,819.20 743.00,814.90 C774.03,803.43 807.74,771.85 822.41,740.50 C827.55,729.53 831.90,715.91 833.52,705.78 C834.33,700.68 835.43,694.47 835.96,692.00 C836.48,689.53 836.93,677.28 836.96,664.79 L 837.00 642.08 L 622.70 642.70 C473.62,643.13 407.82,643.00 406.51,642.27 C404.72,641.26 404.64,639.39 404.83,599.49 C404.96,572.61 405.43,556.12 406.16,553.14 C411.29,532.02 428.43,518.53 455.13,514.57 C463.99,513.26 477.11,513.00 534.13,513.00 C572.97,513.00 607.15,512.56 613.27,511.98 C632.15,510.19 660.66,502.79 676.37,495.60 C679.50,494.17 682.39,493.00 682.80,493.00 C683.21,493.00 688.49,490.25 694.52,486.89 C700.56,483.53 708.42,479.17 712.00,477.20 C739.28,462.18 779.06,422.96 794.06,396.30 C795.85,393.11 798.77,388.48 800.53,386.00 C805.59,378.88 817.41,353.64 821.83,340.50 C832.05,310.10 835.89,288.55 836.70,257.00 C837.32,233.14 836.34,203.00 834.96,203.00 C834.51,203.00 833.84,203.92 833.49,205.04 C832.60,207.85 818.96,225.30 812.39,232.03 L 807.00 237.56 L 807.00 245.03 C806.98,277.20 800.50,311.63 789.04,340.50 C778.40,367.28 760.51,394.29 739.34,415.50 C717.69,437.21 702.31,448.50 678.00,460.56 C658.31,470.32 646.59,474.17 623.00,478.62 L 608.50 481.36 L 529.00 481.99 C451.38,482.60 449.32,482.66 442.00,484.78 C437.88,485.97 432.25,487.80 429.50,488.84 C426.75,489.89 422.82,491.04 420.77,491.41 C417.46,492.01 417.11,491.88 417.69,490.29 C419.29,485.97 423.80,480.00 430.40,473.49 C440.20,463.81 454.03,456.87 471.50,452.87 C474.81,452.12 499.38,451.49 544.00,451.03 C612.66,450.31 618.40,449.99 631.35,446.12 C633.08,445.60 637.71,444.23 641.62,443.07 C658.68,438.04 678.58,425.69 692.77,411.35 C704.75,399.24 715.21,381.58 716.71,370.96 C717.39,366.10 714.83,360.48 710.81,358.03 C707.54,356.03 706.07,356.01 596.36,356.00 C526.43,356.00 481.37,356.39 474.86,357.04 C464.14,358.12 443.23,362.06 434.50,364.64 C411.71,371.37 402.05,375.16 381.81,385.28 C364.17,394.09 342.11,408.43 327.23,420.74 C271.39,466.97 234.12,539.31 224.86,619.50 C223.14,634.35 223.16,682.98 224.88,693.42 C234.87,753.89 273.95,800.14 330.50,818.41 C339.83,821.43 348.70,823.18 365.50,825.32 C373.02,826.28 681.33,825.93 694.44,824.95 ZM 233.02 494.50 C236.45,487.90 242.79,477.14 247.12,470.59 L 255.00 458.67 L 255.00 338.59 C255.00,212.34 255.07,210.20 259.42,198.50 C260.24,196.30 260.93,193.81 260.96,192.97 C261.02,190.66 270.53,172.40 274.68,166.61 C291.27,143.46 316.95,126.91 345.56,120.94 C355.34,118.89 354.43,118.90 639.88,118.98 L 728.25 119.00 L 727.64 122.04 C725.52,132.64 707.85,150.75 693.37,157.17 C690.69,158.35 685.35,160.24 681.50,161.36 C674.62,163.37 671.80,163.41 514.50,163.95 L 354.50 164.50 L 345.74 167.63 C333.85,171.89 326.81,176.24 318.90,184.25 C309.88,193.38 303.81,205.47 301.01,219.86 C299.09,229.75 299.00,234.16 299.00,317.05 C299.00,373.50 299.35,404.10 299.99,404.50 C300.54,404.83 304.70,402.03 309.24,398.27 C313.78,394.50 320.09,389.47 323.25,387.09 C327.43,383.94 329.06,382.04 329.21,380.13 C329.32,378.68 329.43,342.62 329.46,300.00 L 329.50 222.50 L 332.64 216.00 C336.44,208.13 341.36,203.27 350.00,198.83 L 356.50 195.50 L 516.00 195.41 C694.52,195.30 682.99,195.76 701.64,188.09 C714.22,182.91 725.97,174.81 736.07,164.34 C748.56,151.37 755.71,140.16 760.49,126.00 L 762.68 119.50 L 783.48 119.23 L 804.28 118.96 L 803.76 124.76 C803.02,132.88 796.83,150.76 790.91,161.84 C782.54,177.54 773.48,188.89 759.00,201.82 C739.86,218.92 720.59,229.03 692.50,236.73 C680.65,239.97 676.91,240.05 510.00,240.30 L 375.50 240.50 L 375.24 297.00 C375.10,328.08 375.22,354.11 375.50,354.86 C375.86,355.79 376.42,355.91 377.26,355.26 C377.94,354.73 384.11,351.73 390.98,348.59 C397.84,345.45 403.80,342.35 404.21,341.69 C404.63,341.04 404.98,325.09 404.98,306.25 L 405.00 272.00 L 485.75 271.87 C570.65,271.73 674.30,270.64 687.00,269.76 C705.36,268.47 734.29,257.36 756.00,243.27 C796.91,216.70 823.92,178.98 833.02,135.69 C835.37,124.53 837.26,104.04 836.82,94.50 L 836.50 87.50 L 736.50 87.00 C681.50,86.72 571.70,86.74 492.50,87.03 L 348.50 87.55 L 337.00 90.69 C330.67,92.41 322.38,95.01 318.57,96.46 C309.34,99.97 293.17,108.33 287.94,112.30 C285.62,114.06 281.76,116.89 279.36,118.59 C273.17,122.99 263.35,132.41 257.06,140.00 C243.35,156.53 233.93,175.70 227.81,199.50 L 225.50 208.50 L 225.23 358.47 C225.06,449.85 225.32,508.06 225.88,507.47 C226.38,506.94 229.60,501.10 233.02,494.50 ZM 365.50 794.41 C353.12,792.59 343.43,790.54 337.17,788.43 C310.38,779.37 288.49,762.54 273.53,739.50 C267.06,729.53 261.00,717.81 261.00,715.26 C261.00,714.71 260.08,711.39 258.95,707.88 C255.04,695.71 253.69,683.02 253.66,658.00 C253.62,632.39 255.59,609.12 259.11,593.52 C271.01,540.81 294.24,496.27 327.91,461.64 C343.99,445.10 361.81,431.21 378.28,422.37 C411.80,404.38 425.63,399.04 457.50,391.78 L 471.50 388.59 L 570.75 388.26 C649.24,387.99 670.00,388.18 670.00,389.16 C670.00,391.01 661.01,399.04 654.69,402.83 C643.61,409.47 630.92,414.14 615.73,417.17 C612.68,417.77 582.29,418.53 543.00,418.97 C470.04,419.80 470.12,419.80 452.53,425.66 C434.35,431.71 422.37,439.05 408.80,452.45 C394.59,466.48 384.40,483.77 378.36,504.10 L 375.57 513.50 L 375.24 593.10 L 374.92 672.71 L 381.11 673.35 C384.51,673.71 465.09,674.00 560.18,674.00 C716.59,674.00 733.12,674.15 733.67,675.58 C734.43,677.57 732.56,683.92 729.16,690.91 C723.74,702.03 712.34,711.65 699.19,716.19 L 692.50 718.50 L 529.50 718.50 L 366.50 718.50 L 360.58 716.25 C357.32,715.01 352.78,712.89 350.48,711.54 C343.81,707.63 335.67,698.10 332.40,690.35 L 329.50 683.50 L 329.21 610.51 C329.05,570.37 328.56,537.16 328.12,536.72 C327.36,535.96 319.86,550.98 315.76,561.50 C310.47,575.06 305.81,591.38 303.07,606.00 C299.18,626.67 298.79,632.01 299.22,659.00 C299.69,689.26 300.42,693.31 308.01,707.90 C313.54,718.54 318.32,724.57 326.64,731.43 C335.28,738.56 345.29,743.74 356.46,746.85 L 365.50 749.38 L 525.50 749.73 C627.63,749.95 688.23,749.72 693.04,749.09 C711.71,746.64 727.57,738.75 740.67,725.42 C754.18,711.66 762.54,695.65 764.52,679.75 C765.05,675.43 765.64,673.98 766.87,673.93 C775.99,673.52 805.01,673.89 805.88,674.42 C807.46,675.40 807.27,685.18 805.46,695.56 C798.04,738.13 765.81,775.50 725.72,788.03 C705.09,794.48 716.66,794.09 534.50,794.49 C443.20,794.68 367.15,794.65 365.50,794.41 Z" fill="rgb(254,254,254)"/>
</g>
</svg>